<svg width="375" height="667" viewBox="0 0 375 667" fill="none" xmlns="http://www.w3.org/2000/svg">
<mask id="mask0_205_229" style="mask-type:alpha" maskUnits="userSpaceOnUse" x="0" y="0" width="375" height="667">
<rect width="375" height="667" fill="#D9D9D9"/>
</mask>
<g mask="url(#mask0_205_229)">
<g opacity="0.3">
<mask id="mask1_205_229" style="mask-type:luminance" maskUnits="userSpaceOnUse" x="-370" y="-186" width="917" height="1283">
<path d="M546.707 1097L546.707 -186L-370 -186L-370 1097H546.707Z" fill="white"/>
</mask>
<g mask="url(#mask1_205_229)">
<path d="M-851.97 179.356L36.5088 -128.106L36.1418 -129.161L-851.97 178.173V179.356Z" fill="#6DC3BF"/>
<path d="M-851.97 375.993L36.5554 -29.5722L36.0894 -30.5916L-851.97 374.758V375.993Z" fill="#6DC3BF"/>
<path d="M-851.97 572.636L36.602 68.962L36.0486 67.9834L-851.97 571.343V572.636Z" fill="#6DC3BF"/>
<path d="M-851.97 769.279L36.6369 167.484L36.0078 166.558L-851.97 767.928V769.279Z" fill="#6DC3BF"/>
<path d="M-851.97 965.928L36.6718 266.019L35.9787 265.133L-851.97 964.501V965.928Z" fill="#6DC3BF"/>
<path d="M-851.97 1162.58L36.701 364.547L35.9495 363.714L-851.97 1161.07V1162.58Z" fill="#6DC3BF"/>
<path d="M-851.97 1359.23L36.7243 463.075L35.9263 462.289L-851.97 1357.64V1359.23Z" fill="#6DC3BF"/>
<path d="M36.8874 -471.327H35.7632V462.679H36.8874V-471.327Z" fill="#6DC3BF"/>
<path d="M5.23483 -471.327H4.1106V494.658H5.23483V-471.327Z" fill="#6DC3BF"/>
<path d="M628.64 67.7563H36.3105V68.8806H628.64V67.7563Z" fill="#6DC3BF"/>
<path d="M628.64 166.343H36.3105V167.467H628.64V166.343Z" fill="#6DC3BF"/>
<path d="M628.64 264.935H36.3105V266.059H628.64V264.935Z" fill="#6DC3BF"/>
<path d="M628.64 363.528H36.3105V364.652H628.64V363.528Z" fill="#6DC3BF"/>
<path d="M628.64 462.12H36.3105V463.244H628.64V462.12Z" fill="#6DC3BF"/>
<path d="M325.954 -471.327H324.83V462.679H325.954V-471.327Z" fill="#6DC3BF"/>
<path d="M229.61 -471.327H228.486V462.528H229.61V-471.327Z" fill="#6DC3BF"/>
<path d="M133.266 -471.327H132.142V462.685H133.266V-471.327Z" fill="#6DC3BF"/>
<path d="M36.8756 -471.327H35.7515V462.679H36.8756V-471.327Z" fill="#6DC3BF"/>
<path d="M628.646 636.319H-135.769V637.444H628.646V636.319Z" fill="#6DC3BF"/>
<path d="M628.64 598.533H-98.4368V599.658H628.64V598.533Z" fill="#6DC3BF"/>
<path d="M628.64 562.314H-62.6431V563.438H628.64V562.314Z" fill="#6DC3BF"/>
<path d="M628.64 527.569H-28.3052V528.693H628.64V527.569Z" fill="#6DC3BF"/>
<path d="M628.639 494.198H4.66943V495.322H628.639V494.198Z" fill="#6DC3BF"/>
<path d="M628.64 462.126H36.363V463.25H628.64V462.126Z" fill="#6DC3BF"/>
<path d="M628.64 605.582L37.8892 1641.63H39.1764L628.64 607.842V605.582Z" fill="#6DC3BF"/>
<path d="M-127.544 1641.63L614.893 462.988L613.943 462.388L-128.872 1641.63H-127.544Z" fill="#6DC3BF"/>
<path d="M-294.27 1641.63L518.537 463.005L517.617 462.37L-295.627 1641.63H-294.27Z" fill="#6DC3BF"/>
<path d="M-460.985 1641.63L422.182 463.023L421.285 462.353L-462.389 1641.63H-460.985Z" fill="#6DC3BF"/>
<path d="M-627.706 1641.63L325.826 463.04L324.958 462.335L-629.144 1641.63H-627.706Z" fill="#6DC3BF"/>
<path d="M-794.42 1641.63L229.47 463.058L228.626 462.318L-795.906 1641.63H-794.42Z" fill="#6DC3BF"/>
<path d="M-851.97 1524.05L133.115 463.064L132.294 462.306L-851.97 1522.4V1524.05Z" fill="#6DC3BF"/>
<path d="M-851.97 1362.44L36.7591 463.081L35.9669 462.295L-851.97 1360.85V1362.44Z" fill="#6DC3BF"/>
</g>
</g>
</g>
</svg>
