<svg width="8" height="9" viewBox="0 0 8 9" fill="none" xmlns="http://www.w3.org/2000/svg">
<path d="M5.99922 1.76636C5.75063 1.76636 5.55176 1.96739 5.55176 2.21381C5.55176 2.46024 5.75279 2.66127 5.99922 2.66127C6.24564 2.66127 6.44667 2.46024 6.44667 2.21381C6.44667 1.96739 6.24564 1.76636 5.99922 1.76636Z" fill="#6DC3BF"/>
<path d="M4.00631 2.34106C2.96873 2.34106 2.12354 3.18626 2.12354 4.22384C2.12354 5.26142 2.96873 6.10662 4.00631 6.10662C5.0439 6.10662 5.88909 5.26142 5.88909 4.22384C5.88909 3.18626 5.0439 2.34106 4.00631 2.34106ZM4.00631 5.43003C3.34053 5.43003 2.80013 4.88962 2.80013 4.22384C2.80013 3.55806 3.34053 3.01765 4.00631 3.01765C4.6721 3.01765 5.2125 3.55806 5.2125 4.22384C5.2125 4.88962 4.6721 5.43003 4.00631 5.43003Z" fill="#6DC3BF"/>
<path d="M5.50209 8.0499H2.44771C1.181 8.0499 0.149902 7.01881 0.149902 5.75209V2.69771C0.149902 1.431 1.181 0.399902 2.44771 0.399902H5.50209C6.76881 0.399902 7.7999 1.431 7.7999 2.69771V5.75209C7.7999 7.01881 6.76881 8.0499 5.50209 8.0499ZM2.44771 1.12189C1.57874 1.12189 0.869725 1.82874 0.869725 2.69987V5.75425C0.869725 6.62323 1.57657 7.33224 2.44771 7.33224H5.50209C6.37107 7.33224 7.08008 6.62539 7.08008 5.75425V2.69987C7.08008 1.8309 6.37323 1.12189 5.50209 1.12189H2.44771Z" fill="#6DC3BF"/>
</svg>
