<svg width="9" height="11" viewBox="0 0 9 11" fill="none" xmlns="http://www.w3.org/2000/svg">
<path d="M4.37355 2.66602C3.74632 2.66602 3.23364 3.19875 3.23364 3.85717C3.23364 4.5156 3.74345 5.04832 4.37355 5.04832C5.00365 5.04832 5.51346 4.5156 5.51346 3.85717C5.51346 3.19875 5.00365 2.66602 4.37355 2.66602Z" fill="#6DC3BF"/>
<path d="M4.37362 0.0500488C2.26278 0.0500488 0.550049 1.83977 0.550049 4.0455C0.550049 5.928 3.33109 9.33085 4.15022 10.2946C4.27051 10.4352 4.47959 10.4352 4.59988 10.2946C5.41901 9.33085 8.20005 5.928 8.20005 4.0455C8.20005 1.83977 6.48732 0.0500488 4.37648 0.0500488H4.37362ZM4.37362 5.82923C3.33109 5.82923 2.48331 4.94335 2.48331 3.85395C2.48331 2.76456 3.33109 1.87867 4.37362 1.87867C5.41615 1.87867 6.26392 2.76456 6.26392 3.85395C6.26392 4.94335 5.41615 5.82923 4.37362 5.82923Z" fill="#6DC3BF"/>
</svg>
