<svg width="85" height="26" viewBox="0 0 85 26" fill="none" xmlns="http://www.w3.org/2000/svg">
<g clip-path="url(#clip0_142_24)">
<mask id="mask0_142_24" style="mask-type:luminance" maskUnits="userSpaceOnUse" x="0" y="17" width="80" height="9">
<path d="M79.9079 17.6072L77.7014 25.1196C77.6335 25.3838 77.3959 25.5305 77.1244 25.5305H0.0336914L2.13832 17.5485H79.9079V17.6072Z" fill="white"/>
</mask>
<g mask="url(#mask0_142_24)">
<path d="M79.8742 24.7382H0V26H79.8742V24.7382Z" fill="#6DC3BF"/>
<path d="M79.8742 23.8871H0V24.5327H79.8742V23.8871Z" fill="#6DC3BF"/>
<path d="M79.8742 23.0068H0V23.6524H79.8742V23.0068Z" fill="#6DC3BF"/>
<path d="M79.8742 22.1558H0V22.8014H79.8742V22.1558Z" fill="#6DC3BF"/>
<path d="M79.8742 21.3047H0V21.9503H79.8742V21.3047Z" fill="#6DC3BF"/>
<path d="M79.8742 20.4244H0V21.07H79.8742V20.4244Z" fill="#6DC3BF"/>
<path d="M79.8742 19.5734H0V20.219H79.8742V19.5734Z" fill="#6DC3BF"/>
<path d="M79.8742 18.693H0V19.3386H79.8742V18.693Z" fill="#6DC3BF"/>
<path d="M79.8742 17.842H0V18.4876H79.8742V17.842Z" fill="#6DC3BF"/>
</g>
<path fill-rule="evenodd" clip-rule="evenodd" d="M67.0428 0H85.0001L83.5404 4.66591C83.4725 4.90068 83.2349 5.07675 82.9633 5.07675H77.1247L73.5943 17.9007H68.197L71.6594 5.07675H65.9226L67.0428 0Z" fill="#111F30"/>
<path fill-rule="evenodd" clip-rule="evenodd" d="M14.2911 7.01354L8.92772 9.68397L6.51758 17.9594H11.1002L13.0352 11.2099H23.7959C24.0675 11.2099 24.3051 11.0632 24.373 10.7991L25.5272 7.04289H14.2911V7.01354Z" fill="#111F30"/>
<path fill-rule="evenodd" clip-rule="evenodd" d="M33.9117 0.117378H39.2751L40.1577 17.842H35.2695V15.7878L28.5143 15.6998L26.9867 17.842H22.3022L33.3685 0.381487C33.4704 0.205414 33.674 0.117378 33.8777 0.117378H33.9117ZM35.1677 4.95937L31.196 10.9165H35.2016V4.95937H35.1677Z" fill="#111F30"/>
<path fill-rule="evenodd" clip-rule="evenodd" d="M10.6589 3.69752H26.4097L25.629 6.30926H9.87817L10.6589 3.69752Z" fill="#6DC3BF"/>
<path fill-rule="evenodd" clip-rule="evenodd" d="M11.6433 0.0880356H27.3941L26.6473 2.8465H10.8625L11.6433 0.0880356Z" fill="#111F30"/>
<path fill-rule="evenodd" clip-rule="evenodd" d="M53.125 -2.746e-06C43.5184 -0.322802 44.4688 11.5034 49.8662 11.5327L59.0994 11.5914C62.494 11.5914 62.494 6.92551 59.0655 6.92551H53.0571C51.3598 6.92551 51.3598 5.25282 53.0571 5.25282L63.4105 5.16478C63.6821 5.16478 63.9197 4.98871 63.9876 4.7246L65.1418 -2.746e-06H53.125Z" fill="#111F30"/>
<path fill-rule="evenodd" clip-rule="evenodd" d="M49.6964 13.3228C48.3386 16.1106 49.5606 17.842 49.5606 17.842H42.8054C43.4843 13.9097 44.1293 13.3228 44.1293 13.3228H49.7303H49.6964Z" fill="#111F30"/>
<path fill-rule="evenodd" clip-rule="evenodd" d="M56.1801 17.842C54.1094 17.842 52.1066 17.9007 50.0359 17.842C50.3753 16.9616 51.5295 15.8758 52.9892 15.8465H59.7444C59.7444 16.4921 58.1829 17.8126 56.1801 17.8126" fill="#6DC3BF"/>
<path d="M8.6221 23.3296H6.44957L5.80461 24.5327H4.44678L7.73951 18.6637H8.89366L10.0818 24.5327H8.82577L8.6221 23.3296ZM6.95876 22.3612H8.45237L8.11291 20.1896L6.95876 22.3612Z" fill="#DEF0F2"/>
<path d="M12.2205 24.5327L13.3067 18.6637H15.0719C15.4792 18.6637 15.8526 18.7517 16.1921 18.9278C16.5316 19.1038 16.8031 19.3386 17.0068 19.6614C17.2105 19.9842 17.3463 20.3363 17.3802 20.7472C17.3802 20.9819 17.3802 21.2167 17.3802 21.4515V21.6569C17.2105 22.5079 16.871 23.2122 16.2939 23.7111C15.7169 24.2099 15.004 24.5034 14.1554 24.5034H12.2544L12.2205 24.5327ZM14.359 19.6614L13.6462 23.5643H14.1554C14.7324 23.5643 15.1737 23.3589 15.5471 22.9774C15.8866 22.5666 16.0903 21.9797 16.1582 21.1874V21.07C16.1582 20.6298 16.0903 20.2777 15.8866 20.0429C15.6829 19.8081 15.4114 19.6907 15.038 19.6614H14.359Z" fill="#DEF0F2"/>
<path d="M21.6573 23.0655L23.728 18.6637H25.1537L22.0986 24.5327H20.8087L19.6885 18.6637H21.0124L21.6234 23.0655H21.6573Z" fill="#DEF0F2"/>
<path d="M30.3474 21.9797H27.9712L27.6657 23.535H30.4493L30.2795 24.5034H26.24L27.3263 18.6343H31.3658L31.1961 19.6027H28.4125L28.1409 21.0113H30.5171L30.3474 21.9503V21.9797Z" fill="#DEF0F2"/>
<path d="M35.2017 22.3905H34.1834L33.776 24.5327H32.52L33.6063 18.6637H35.643C36.3219 18.6637 36.8651 18.8104 37.2385 19.1332C37.6119 19.456 37.7816 19.8668 37.7137 20.395C37.6458 21.1874 37.2045 21.7449 36.3559 22.0677L37.2385 24.4447V24.5034H35.9146L35.1678 22.3612L35.2017 22.3905ZM34.3531 21.4221H35.2696C35.6091 21.4221 35.8806 21.3341 36.0843 21.1874C36.288 21.0406 36.4238 20.8059 36.4577 20.5124C36.4917 20.2483 36.4577 20.0429 36.3219 19.8962C36.1862 19.7494 35.9825 19.6614 35.7109 19.6614H34.6586L34.3191 21.4221H34.3531Z" fill="#DEF0F2"/>
<path d="M44.7065 19.6614H42.8735L41.9909 24.5327H40.7349L41.6175 19.6614H39.8184L39.9881 18.693H44.8763L44.7065 19.6614Z" fill="#DEF0F2"/>
<path d="M47.3881 24.5327H46.1321L47.2183 18.6637H48.4743L47.3881 24.5327Z" fill="#DEF0F2"/>
<path d="M53.4983 22.9774C53.5662 22.6546 53.3965 22.4199 52.9891 22.2438L52.1744 21.921C51.2239 21.5102 50.7826 20.9526 50.8166 20.2483C50.8166 19.9255 50.9524 19.6321 51.156 19.3679C51.3597 19.1038 51.6652 18.9278 52.0386 18.781C52.412 18.6343 52.8194 18.5756 53.2607 18.5756C53.8717 18.5756 54.3469 18.7517 54.7203 19.0745C55.0937 19.3973 55.2635 19.8375 55.2635 20.395H54.0075C54.0075 20.1309 53.9735 19.9255 53.8378 19.7788C53.702 19.6321 53.4983 19.544 53.1928 19.544C52.9212 19.544 52.6497 19.6027 52.446 19.7201C52.2423 19.8375 52.1065 20.0135 52.0726 20.2483C52.0047 20.5418 52.2084 20.7765 52.6836 20.9526L53.2607 21.158L53.6001 21.3047C54.4488 21.6862 54.8222 22.2438 54.7882 22.9481C54.7882 23.3002 54.6525 23.5937 54.4488 23.8578C54.2451 24.1219 53.9735 24.298 53.6001 24.4447C53.2267 24.5914 52.8533 24.6501 52.412 24.6208C51.9707 24.6208 51.5973 24.5327 51.2239 24.3567C50.8505 24.1806 50.6129 23.9458 50.4432 23.6524C50.2735 23.3589 50.2056 23.0361 50.2056 22.684H51.4616C51.4276 23.3296 51.7671 23.6524 52.446 23.6524C52.7515 23.6524 52.9891 23.5937 53.1928 23.4763C53.3965 23.3589 53.4983 23.1828 53.5322 22.9774H53.4983Z" fill="#DEF0F2"/>
<path d="M58.1491 24.5327H56.8931L57.9793 18.6637H59.2353L58.1491 24.5327Z" fill="#DEF0F2"/>
<path d="M65.7527 24.5327H64.5306L62.7994 20.6298L62.0866 24.5327H60.8306L61.9168 18.6637H63.1049L64.8362 22.5666L65.549 18.6637H66.805L65.7187 24.5327H65.7527Z" fill="#DEF0F2"/>
<path d="M73.3227 23.7991C73.085 24.0632 72.7795 24.2686 72.3382 24.4153C71.8969 24.5621 71.4217 24.6208 70.9125 24.6208C70.5052 24.6208 70.1318 24.5327 69.7923 24.3567C69.4868 24.1806 69.2152 23.9458 69.0455 23.623C68.8758 23.3002 68.7739 22.9187 68.74 22.5079C68.74 22.1264 68.74 21.6569 68.8758 21.158C68.9776 20.6298 69.1813 20.1896 69.4528 19.7788C69.7244 19.3973 70.0639 19.1038 70.4712 18.8984C70.8786 18.693 71.2859 18.605 71.7612 18.605C72.4061 18.605 72.9153 18.781 73.2887 19.1332C73.6621 19.456 73.8658 19.9549 73.8997 20.5711H72.7116C72.7116 20.2483 72.5759 19.9842 72.4401 19.8375C72.3043 19.6907 72.0667 19.6027 71.7612 19.6027C71.252 19.6027 70.8107 19.8081 70.5391 20.2483C70.2336 20.6885 70.0639 21.3634 70.0299 22.2144C70.0299 22.684 70.0639 23.0361 70.2675 23.2709C70.4712 23.5056 70.7088 23.6524 71.0822 23.6524C71.4896 23.6524 71.863 23.5643 72.1685 23.3589L72.3722 22.3612H71.252L71.4217 21.4808H73.7979L73.4245 23.8284L73.3227 23.7991Z" fill="#DEF0F2"/>
</g>
<defs>
<clipPath id="clip0_142_24">
<rect width="85" height="26" fill="white"/>
</clipPath>
</defs>
</svg>
