<svg width="8" height="6" viewBox="0 0 8 6" fill="none" xmlns="http://www.w3.org/2000/svg">
<path d="M0.916326 0.379173L3.57297 3.27485C3.72428 3.43883 3.9426 3.53432 4.16958 3.53432C4.39655 3.53432 4.61487 3.44091 4.76618 3.27485L7.37743 0.428989C7.39905 0.406155 7.42499 0.387476 7.45093 0.372946C7.34068 0.327279 7.21747 0.300293 7.08993 0.300293H1.25138C1.12817 0.300293 1.01144 0.323128 0.905518 0.366719C0.909841 0.37087 0.914164 0.375021 0.918487 0.379173H0.916326Z" fill="#6DC3BF"/>
<path d="M7.85743 0.707275C7.84662 0.736336 7.82933 0.765395 7.80555 0.790304L5.1943 3.63617C4.93491 3.91847 4.56311 4.08038 4.17185 4.08038C3.7806 4.08038 3.4088 3.91847 3.14941 3.63617L0.492765 0.740485C0.492765 0.740485 0.484119 0.728031 0.479795 0.721804C0.397653 0.852577 0.350098 1.00411 0.350098 1.16809V5.08712C0.350098 5.56662 0.754322 5.95478 1.25366 5.95478H7.09654C7.59587 5.95478 8.0001 5.56662 8.0001 5.08712V1.16809C8.0001 0.997881 7.94822 0.842199 7.86175 0.707275H7.85743Z" fill="#6DC3BF"/>
</svg>
