<svg width="375" height="667" viewBox="0 0 375 667" fill="none" xmlns="http://www.w3.org/2000/svg">
<mask id="mask0_167_43" style="mask-type:alpha" maskUnits="userSpaceOnUse" x="0" y="0" width="375" height="667">
<rect width="375" height="667" fill="#D9D9D9"/>
</mask>
<g mask="url(#mask0_167_43)">
</g>
<g opacity="0.1">
<path d="M1510.21 953.204H1651.37V72.7962H70.6333V953.204H1510.21ZM1647.25 108.671H1615.3V76.911H1647.25V108.671ZM1580.28 878.903V844.874H1613.94V878.903H1580.28ZM1613.94 880.28V913.527H1580.28V880.28H1613.94ZM1193.57 493.412H1159.91V460.165H1193.57V493.412ZM1194.94 460.165H1228.62V493.412H1194.94V460.165ZM1158.55 493.412H1125.95V460.165H1158.55V493.412ZM1121.85 493.412H1089.85V460.165H1121.85V493.412ZM1088.49 493.412H1054.83V460.165H1088.49V493.412ZM1053.46 493.412H1019.8V460.165H1053.46V493.412ZM1018.42 493.412H984.765V460.165H1018.42V493.412ZM983.387 493.412H950.826V460.165H983.387V493.412ZM946.709 493.412H914.695V460.165H946.709V493.412ZM913.333 493.412H879.676V460.165H913.333V493.412ZM878.298 493.412H844.25V460.165H878.298V493.412ZM842.888 493.412H809.23V460.165H842.888V493.412ZM807.853 493.412H775.291V460.165H807.853V493.412ZM771.19 493.412H739.161V460.165H771.19V493.412ZM737.799 493.412H704.141V460.165H737.799V493.412ZM702.764 493.412H669.107V460.165H702.764V493.412ZM667.729 493.412H634.072V460.165H667.729V493.412ZM632.71 493.412H600.164V460.165H632.71V493.412ZM596.062 493.412H564.033V460.165H596.062V493.412ZM562.656 493.412H528.998V460.165H562.656V493.412ZM527.621 493.412H493.964V460.165H527.621V493.412ZM492.602 493.412H458.944V460.165H492.602V493.412ZM492.602 494.789V528.818H458.944V494.789H492.602ZM493.979 494.789H527.636V528.818H493.979V494.789ZM529.014 494.789H562.671V528.818H529.014V494.789ZM564.049 494.789H596.078V528.818H564.049V494.789ZM600.195 494.789H632.741V528.818H600.195V494.789ZM634.103 494.789H667.76V528.818H634.103V494.789ZM669.138 494.789H702.795V528.818H669.138V494.789ZM704.173 494.789H737.83V528.818H704.173V494.789ZM739.208 494.789H771.237V528.818H739.208V494.789ZM775.338 494.789H807.9V528.818H775.338V494.789ZM809.262 494.789H842.919V528.818H809.262V494.789ZM844.297 494.789H878.345V528.818H844.297V494.789ZM879.707 494.789H913.365V528.818H879.707V494.789ZM914.742 494.789H946.756V528.818H914.742V494.789ZM950.857 494.789H983.419V528.818H950.857V494.789ZM984.796 494.789H1018.45V528.818H984.796V494.789ZM1019.83 494.789H1053.49V528.818H1019.83V494.789ZM1054.87 494.789H1088.52V528.818H1054.87V494.789ZM1089.9 494.789H1121.9V528.818H1089.9V494.789ZM1126 494.789H1158.59V528.818H1126V494.789ZM1159.95 494.789H1193.61V528.818H1159.95V494.789ZM1194.99 494.789H1228.66V528.818H1194.99V494.789ZM1230.02 494.789H1263.68V528.818H1230.02V494.789ZM1230.02 493.412V460.165H1263.68V493.412H1230.02ZM1230.02 458.788V426.996H1263.68V458.788H1230.02ZM1228.66 458.788H1194.99V426.996H1228.66V458.788ZM1193.63 458.788H1159.97V426.996H1193.63V458.788ZM1158.61 458.788H1126.02V426.996H1158.61V458.788ZM1121.91 458.788H1089.92V426.996H1121.91V458.788ZM1088.55 458.788H1054.9V426.996H1088.55V458.788ZM1053.52 458.788H1019.86V426.996H1053.52V458.788ZM1018.48 458.788H984.827V426.996H1018.48V458.788ZM983.45 458.788H950.888V426.996H983.45V458.788ZM946.771 458.788H914.758V426.996H946.771V458.788ZM913.396 458.788H879.738V426.996H913.396V458.788ZM878.361 458.788H844.312V426.996H878.361V458.788ZM842.95 458.788H809.293V426.996H842.95V458.788ZM807.916 458.788H775.354V426.996H807.916V458.788ZM771.253 458.788H739.223V426.996H771.253V458.788ZM737.861 458.788H704.204V426.996H737.861V458.788ZM702.826 458.788H669.169V426.996H702.826V458.788ZM667.792 458.788H634.134V426.996H667.792V458.788ZM632.772 458.788H600.227V426.996H632.772V458.788ZM596.125 458.788H564.096V426.996H596.125V458.788ZM562.718 458.788H529.061V426.996H562.718V458.788ZM527.683 458.788H494.026V426.996H527.683V458.788ZM492.664 458.788H459.007V426.996H492.664V458.788ZM457.629 458.788H425.099V426.996H457.629V458.788ZM457.629 460.149V493.396H425.099V460.149H457.629ZM457.629 494.773V528.802H425.099V494.773H457.629ZM457.629 530.163V563.41H425.099V530.163H457.629ZM459.007 530.163H492.664V563.41H459.007V530.163ZM494.042 530.163H527.699V563.41H494.042V530.163ZM529.077 530.163H562.734V563.41H529.077V530.163ZM564.112 530.163H596.141V563.41H564.112V530.163ZM600.258 530.163H632.804V563.41H600.258V530.163ZM634.166 530.163H667.823V563.41H634.166V530.163ZM669.201 530.163H702.858V563.41H669.201V530.163ZM704.235 530.163H737.893V563.41H704.235V530.163ZM739.27 530.163H771.299V563.41H739.27V530.163ZM775.401 530.163H807.962V563.41H775.401V530.163ZM809.324 530.163H842.982V563.41H809.324V530.163ZM844.359 530.163H878.408V563.41H844.359V530.163ZM879.77 530.163H913.427V563.41H879.77V530.163ZM914.805 530.163H946.818V563.41H914.805V530.163ZM950.92 530.163H983.481V563.41H950.92V530.163ZM984.859 530.163H1018.52V563.41H984.859V530.163ZM1019.89 530.163H1053.55V563.41H1019.89V530.163ZM1054.93 530.163H1088.59V563.41H1054.93V530.163ZM1089.96 530.163H1121.96V563.41H1089.96V530.163ZM1126.06 530.163H1158.66V563.41H1126.06V530.163ZM1160.02 530.163H1193.67V563.41H1160.02V530.163ZM1195.05 530.163H1228.73V563.41H1195.05V530.163ZM1230.09 530.163H1263.74V563.41H1230.09V530.163ZM1265.12 530.163H1297.09V563.41H1265.12V530.163ZM1265.12 528.786V494.757H1297.09V528.786H1265.12ZM1265.12 493.396V460.149H1297.09V493.396H1265.12ZM1265.12 458.772V426.981H1297.09V458.772H1265.12ZM425.146 564.787H457.676V598.284H425.146V564.787ZM459.038 564.787H492.696V598.284H459.038V564.787ZM494.073 564.787H527.73V598.284H494.073V564.787ZM529.108 564.787H562.765V598.284H529.108V564.787ZM564.143 564.787H596.172V598.284H564.143V564.787ZM600.289 564.787H632.835V598.284H600.289V564.787ZM634.197 564.787H667.854V598.284H634.197V564.787ZM669.232 564.787H702.889V598.284H669.232V564.787ZM704.267 564.787H737.924V598.284H704.267V564.787ZM739.302 564.787H771.331V598.284H739.302V564.787ZM775.432 564.787H807.994V598.284H775.432V564.787ZM809.356 564.787H843.013V598.284H809.356V564.787ZM844.391 564.787H878.439V598.284H844.391V564.787ZM879.801 564.787H913.458V598.284H879.801V564.787ZM914.836 564.787H946.85V598.284H914.836V564.787ZM950.951 564.787H983.513V598.284H950.951V564.787ZM984.89 564.787H1018.55V598.284H984.89V564.787ZM1019.92 564.787H1053.58V598.284H1019.92V564.787ZM1054.96 564.787H1088.62V598.284H1054.96V564.787ZM1089.99 564.787H1121.99V598.284H1089.99V564.787ZM1126.09 564.787H1158.69V598.284H1126.09V564.787ZM1160.05 564.787H1193.71V598.284H1160.05V564.787ZM1195.08 564.787H1228.76V598.284H1195.08V564.787ZM1230.12 564.787H1263.78V598.284H1230.12V564.787ZM1265.15 564.787H1297.12V598.284H1265.15V564.787ZM1297.12 422.866H1265.15V390.12H1297.12V422.866ZM1263.78 422.866H1230.12V390.12H1263.78V422.866ZM1228.76 422.866H1195.08V390.12H1228.76V422.866ZM1193.72 422.866H1160.06V390.12H1193.72V422.866ZM1158.7 422.866H1126.11V390.12H1158.7V422.866ZM1122.01 422.866H1090.01V390.12H1122.01V422.866ZM1088.65 422.866H1054.99V390.12H1088.65V422.866ZM1053.61 422.866H1019.96V390.12H1053.61V422.866ZM1018.58 422.866H984.921V390.12H1018.58V422.866ZM983.544 422.866H950.982V390.12H983.544V422.866ZM946.865 422.866H914.852V390.12H946.865V422.866ZM913.49 422.866H879.833V390.12H913.49V422.866ZM878.455 422.866H844.406V390.12H878.455V422.866ZM843.044 422.866H809.387V390.12H843.044V422.866ZM808.009 422.866H775.448V390.12H808.009V422.866ZM771.346 422.866H739.317V390.12H771.346V422.866ZM737.955 422.866H704.298V390.12H737.955V422.866ZM702.92 422.866H669.263V390.12H702.92V422.866ZM667.886 422.866H634.228V390.12H667.886V422.866ZM632.866 422.866H600.321V390.12H632.866V422.866ZM596.219 422.866H564.19V390.12H596.219V422.866ZM562.812 422.866H529.155V390.12H562.812V422.866ZM527.777 422.866H494.12V390.12H527.777V422.866ZM492.758 422.866H459.101V390.12H492.758V422.866ZM457.723 422.866H425.193V390.12H457.723V422.866ZM421.092 422.866H389.031V390.12H421.092V422.866ZM421.092 426.981V458.772H389.031V426.981H421.092ZM421.092 460.149V493.396H389.031V460.149H421.092ZM421.092 494.773V528.802H389.031V494.773H421.092ZM421.092 530.163V563.41H389.031V530.163H421.092ZM421.092 564.787V598.284H389.031V564.787H421.092ZM1301.27 598.284V564.787H1333.86V598.284H1301.27ZM1301.27 563.41V530.163H1333.86V563.41H1301.27ZM1301.27 528.786V494.757H1333.86V528.786H1301.27ZM1301.27 493.396V460.149H1333.86V493.396H1301.27ZM1301.27 458.772V426.981H1333.86V458.772H1301.27ZM1301.27 422.866V390.12H1333.86V422.866H1301.27ZM1301.27 388.743V354.714H1333.86V388.743H1301.27ZM1297.15 388.743H1265.18V354.714H1297.15V388.743ZM1263.81 388.743H1230.15V354.714H1263.81V388.743ZM1228.79 388.743H1195.11V354.714H1228.79V388.743ZM1193.75 388.743H1160.1V354.714H1193.75V388.743ZM1158.73 388.743H1126.14V354.714H1158.73V388.743ZM1122.04 388.743H1090.04V354.714H1122.04V388.743ZM1088.68 388.743H1055.02V354.714H1088.68V388.743ZM1053.64 388.743H1019.99V354.714H1053.64V388.743ZM1018.61 388.743H984.953V354.714H1018.61V388.743ZM983.575 388.743H951.014V354.714H983.575V388.743ZM946.896 388.743H914.883V354.714H946.896V388.743ZM913.521 388.743H879.864V354.714H913.521V388.743ZM878.486 388.743H844.438V354.714H878.486V388.743ZM843.076 388.743H809.418V354.714H843.076V388.743ZM808.041 388.743H775.479V354.714H808.041V388.743ZM771.378 388.743H739.349V354.714H771.378V388.743ZM737.987 388.743H704.329V354.714H737.987V388.743ZM702.952 388.743H669.294V354.714H702.952V388.743ZM667.917 388.743H634.26V354.714H667.917V388.743ZM632.898 388.743H600.352V354.714H632.898V388.743ZM596.25 388.743H564.221V354.714H596.25V388.743ZM562.844 388.743H529.186V354.714H562.844V388.743ZM527.809 388.743H494.151V354.714H527.809V388.743ZM492.789 388.743H459.132V354.714H492.789V388.743ZM457.755 388.743H425.224V354.714H457.755V388.743ZM421.123 388.743H389.062V354.714H421.123V388.743ZM387.701 388.743H354.043V354.714H387.701V388.743ZM387.701 390.12V422.866H354.043V390.12H387.701ZM387.701 426.981V458.772H354.043V426.981H387.701ZM387.701 460.149V493.396H354.043V460.149H387.701ZM387.701 494.773V528.802H354.043V494.773H387.701ZM387.701 530.163V563.41H354.043V530.163H387.701ZM387.701 564.787V598.284H354.043V564.787H387.701ZM387.701 602.399V633.44H354.043V602.399H387.701ZM389.062 602.399H421.123V633.44H389.062V602.399ZM425.224 602.399H457.755V633.44H425.224V602.399ZM459.117 602.399H492.774V633.44H459.117V602.399ZM494.151 602.399H527.809V633.44H494.151V602.399ZM529.186 602.399H562.844V633.44H529.186V602.399ZM564.221 602.399H596.25V633.44H564.221V602.399ZM600.367 602.399H632.913V633.44H600.367V602.399ZM634.275 602.399H667.933V633.44H634.275V602.399ZM669.31 602.399H702.967V633.44H669.31V602.399ZM704.345 602.399H738.002V633.44H704.345V602.399ZM739.38 602.399H771.409V633.44H739.38V602.399ZM775.511 602.399H808.072V633.44H775.511V602.399ZM809.434 602.399H843.091V633.44H809.434V602.399ZM844.469 602.399H878.517V633.44H844.469V602.399ZM879.879 602.399H913.537V633.44H879.879V602.399ZM914.914 602.399H946.928V633.44H914.914V602.399ZM951.029 602.399H983.591V633.44H951.029V602.399ZM984.968 602.399H1018.63V633.44H984.968V602.399ZM1020 602.399H1053.66V633.44H1020V602.399ZM1055.04 602.399H1088.7V633.44H1055.04V602.399ZM1090.07 602.399H1122.07V633.44H1090.07V602.399ZM1126.17 602.399H1158.77V633.44H1126.17V602.399ZM1160.13 602.399H1193.78V633.44H1160.13V602.399ZM1195.16 602.399H1228.83V633.44H1195.16V602.399ZM1230.2 602.399H1263.85V633.44H1230.2V602.399ZM1265.23 602.399H1297.2V633.44H1265.23V602.399ZM1301.32 602.399H1333.91V633.44H1301.32V602.399ZM1335.29 602.399H1368.94V633.44H1335.29V602.399ZM1335.29 598.284V564.787H1368.94V598.284H1335.29ZM1335.29 563.41V530.163H1368.94V563.41H1335.29ZM1335.29 528.786V494.757H1368.94V528.786H1335.29ZM1335.29 493.396V460.149H1368.94V493.396H1335.29ZM1335.29 458.772V426.981H1368.94V458.772H1335.29ZM1335.29 422.866V390.12H1368.94V422.866H1335.29ZM1335.29 388.743V354.714H1368.94V388.743H1335.29ZM1335.29 353.353V320.09H1368.94V353.353H1335.29ZM1333.91 353.353H1301.32V320.09H1333.91V353.353ZM1297.2 353.353H1265.23V320.09H1297.2V353.353ZM1263.85 353.353H1230.2V320.09H1263.85V353.353ZM1228.83 353.353H1195.16V320.09H1228.83V353.353ZM1193.8 353.353H1160.14V320.09H1193.8V353.353ZM1158.78 353.353H1126.19V320.09H1158.78V353.353ZM1122.09 353.353H1090.09V320.09H1122.09V353.353ZM1088.73 353.353H1055.07V320.09H1088.73V353.353ZM1053.69 353.353H1020.03V320.09H1053.69V353.353ZM1018.66 353.353H985V320.09H1018.66V353.353ZM983.622 353.353H951.061V320.09H983.622V353.353ZM946.944 353.353H914.93V320.09H946.944V353.353ZM913.568 353.353H879.911V320.09H913.568V353.353ZM878.533 353.353H844.484V320.09H878.533V353.353ZM843.123 353.353H809.465V320.09H843.123V353.353ZM808.088 353.353H775.526V320.09H808.088V353.353ZM771.425 353.353H739.396V320.09H771.425V353.353ZM738.034 353.353H704.376V320.09H738.034V353.353ZM702.999 353.353H669.341V320.09H702.999V353.353ZM667.964 353.353H634.307V320.09H667.964V353.353ZM632.945 353.353H600.399V320.09H632.945V353.353ZM596.297 353.353H564.268V320.09H596.297V353.353ZM562.891 353.353H529.233V320.09H562.891V353.353ZM527.856 353.353H494.198V320.09H527.856V353.353ZM492.836 353.353H459.179V320.09H492.836V353.353ZM457.802 353.353H425.271V320.09H457.802V353.353ZM421.17 353.353H389.109V320.09H421.17V353.353ZM387.747 353.353H354.09V320.09H387.747V353.353ZM352.713 353.353H319.055V320.09H352.713V353.353ZM352.713 354.729V388.759H319.055V354.729H352.713ZM352.713 390.12V422.866H319.055V390.12H352.713ZM352.713 426.981V458.772H319.055V426.981H352.713ZM352.713 460.149V493.396H319.055V460.149H352.713ZM352.713 494.773V528.802H319.055V494.773H352.713ZM352.713 530.163V563.41H319.055V530.163H352.713ZM352.713 564.787V598.284H319.055V564.787H352.713ZM352.713 602.399V633.44H319.055V602.399H352.713ZM352.713 634.801V668.83H319.055V634.801H352.713ZM354.074 634.801H387.732V668.83H354.074V634.801ZM389.109 634.801H421.17V668.83H389.109V634.801ZM425.271 634.801H457.802V668.83H425.271V634.801ZM459.163 634.801H492.821V668.83H459.163V634.801ZM494.198 634.801H527.856V668.83H494.198V634.801ZM529.233 634.801H562.891V668.83H529.233V634.801ZM564.268 634.801H596.297V668.83H564.268V634.801ZM600.414 634.801H632.96V668.83H600.414V634.801ZM634.322 634.801H667.979V668.83H634.322V634.801ZM669.357 634.801H703.014V668.83H669.357V634.801ZM704.392 634.801H738.049V668.83H704.392V634.801ZM739.427 634.801H771.456V668.83H739.427V634.801ZM775.558 634.801H808.119V668.83H775.558V634.801ZM809.481 634.801H843.138V668.83H809.481V634.801ZM844.516 634.801H878.564V668.83H844.516V634.801ZM879.926 634.801H913.584V668.83H879.926V634.801ZM914.961 634.801H946.975V668.83H914.961V634.801ZM951.076 634.801H983.638V668.83H951.076V634.801ZM985.015 634.801H1018.67V668.83H985.015V634.801ZM1020.05 634.801H1053.71V668.83H1020.05V634.801ZM1055.09 634.801H1088.74V668.83H1055.09V634.801ZM1090.12 634.801H1122.12V668.83H1090.12V634.801ZM1126.22 634.801H1158.81V668.83H1126.22V634.801ZM1160.17 634.801H1193.83V668.83H1160.17V634.801ZM1195.21 634.801H1228.88V668.83H1195.21V634.801ZM1230.24 634.801H1263.9V668.83H1230.24V634.801ZM1265.28 634.801H1297.25V668.83H1265.28V634.801ZM1301.36 634.801H1333.96V668.83H1301.36V634.801ZM1335.33 634.801H1368.99V668.83H1335.33V634.801ZM1370.37 634.801H1404.02V668.83H1370.37V634.801ZM1370.37 633.44V602.399H1404.02V633.44H1370.37ZM1370.37 598.284V564.787H1404.02V598.284H1370.37ZM1370.37 563.41V530.163H1404.02V563.41H1370.37ZM1370.37 528.786V494.757H1404.02V528.786H1370.37ZM1370.37 493.396V460.149H1404.02V493.396H1370.37ZM1370.37 458.772V426.981H1404.02V458.772H1370.37ZM1370.37 422.866V390.12H1404.02V422.866H1370.37ZM1370.37 388.743V354.714H1404.02V388.743H1370.37ZM1370.37 353.353V320.09H1404.02V353.353H1370.37ZM1370.37 318.729V284.7H1404.02V318.729H1370.37ZM1368.99 318.729H1335.33V284.7H1368.99V318.729ZM1333.96 318.729H1301.36V284.7H1333.96V318.729ZM1297.25 318.729H1265.28V284.7H1297.25V318.729ZM1263.9 318.729H1230.24V284.7H1263.9V318.729ZM1228.88 318.729H1195.21V284.7H1228.88V318.729ZM1193.85 318.729H1160.19V284.7H1193.85V318.729ZM1158.83 318.729H1126.23V284.7H1158.83V318.729ZM1122.13 318.729H1090.14V284.7H1122.13V318.729ZM1088.77 318.729H1055.12V284.7H1088.77V318.729ZM1053.74 318.729H1020.08V284.7H1053.74V318.729ZM1018.7 318.729H985.047V284.7H1018.7V318.729ZM983.669 318.729H951.108V284.7H983.669V318.729ZM946.99 318.729H914.977V284.7H946.99V318.729ZM913.615 318.729H879.958V284.7H913.615V318.729ZM878.58 318.729H844.531V284.7H878.58V318.729ZM843.169 318.729H809.512V284.7H843.169V318.729ZM808.135 318.729H775.573V284.7H808.135V318.729ZM771.472 318.729H739.443V284.7H771.472V318.729ZM738.081 318.729H704.423V284.7H738.081V318.729ZM703.046 318.729H669.388V284.7H703.046V318.729ZM668.011 318.729H634.354V284.7H668.011V318.729ZM632.992 318.729H600.446V284.7H632.992V318.729ZM596.344 318.729H564.315V284.7H596.344V318.729ZM562.937 318.729H529.28V284.7H562.937V318.729ZM527.903 318.729H494.245V284.7H527.903V318.729ZM492.883 318.729H459.226V284.7H492.883V318.729ZM457.849 318.729H425.318V284.7H457.849V318.729ZM421.217 318.729H389.156V284.7H421.217V318.729ZM387.794 318.729H354.137V284.7H387.794V318.729ZM352.76 318.729H319.102V284.7H352.76V318.729ZM317.725 318.729H284.067V284.7H317.725V318.729ZM317.725 320.106V353.368H284.067V320.106H317.725ZM317.725 354.729V388.759H284.067V354.729H317.725ZM317.725 390.12V422.866H284.067V390.12H317.725ZM317.725 426.981V458.772H284.067V426.981H317.725ZM317.725 460.149V493.396H284.067V460.149H317.725ZM317.725 494.773V528.802H284.067V494.773H317.725ZM317.725 530.163V563.41H284.067V530.163H317.725ZM317.725 564.787V598.284H284.067V564.787H317.725ZM317.725 602.399V633.44H284.067V602.399H317.725ZM317.725 634.801V668.83H284.067V634.801H317.725ZM317.725 670.191V703.438H284.067V670.191H317.725ZM319.087 670.191H352.744V703.438H319.087V670.191ZM354.121 670.191H387.779V703.438H354.121V670.191ZM389.156 670.191H421.217V703.438H389.156V670.191ZM425.318 670.191H457.849V703.438H425.318V670.191ZM459.21 670.191H492.868V703.438H459.21V670.191ZM494.245 670.191H527.903V703.438H494.245V670.191ZM529.28 670.191H562.937V703.438H529.28V670.191ZM564.315 670.191H596.344V703.438H564.315V670.191ZM600.461 670.191H633.007V703.438H600.461V670.191ZM634.369 670.191H668.026V703.438H634.369V670.191ZM669.404 670.191H703.061V703.438H669.404V670.191ZM704.439 670.191H738.096V703.438H704.439V670.191ZM739.474 670.191H771.503V703.438H739.474V670.191ZM775.604 670.191H808.166V703.438H775.604V670.191ZM809.528 670.191H843.185V703.438H809.528V670.191ZM844.563 670.191H878.611V703.438H844.563V670.191ZM879.973 670.191H913.631V703.438H879.973V670.191ZM915.008 670.191H947.022V703.438H915.008V670.191ZM951.123 670.191H983.685V703.438H951.123V670.191ZM985.062 670.191H1018.72V703.438H985.062V670.191ZM1020.1 670.191H1053.75V703.438H1020.1V670.191ZM1055.13 670.191H1088.79V703.438H1055.13V670.191ZM1090.17 670.191H1122.16V703.438H1090.17V670.191ZM1126.27 670.191H1158.86V703.438H1126.27V670.191ZM1160.22 670.191H1193.88V703.438H1160.22V670.191ZM1195.26 670.191H1228.93V703.438H1195.26V670.191ZM1230.29 670.191H1263.95V703.438H1230.29V670.191ZM1265.33 670.191H1297.29V703.438H1265.33V670.191ZM1301.41 670.191H1334V703.438H1301.41V670.191ZM1335.38 670.191H1369.04V703.438H1335.38V670.191ZM1370.41 670.191H1404.07V703.438H1370.41V670.191ZM1405.45 670.191H1439.11V703.438H1405.45V670.191ZM1405.45 668.814V634.785H1439.11V668.814H1405.45ZM1405.45 633.424V602.383H1439.11V633.424H1405.45ZM1405.45 598.268V564.771H1439.11V598.268H1405.45ZM1405.45 563.394V530.148H1439.11V563.394H1405.45ZM1405.45 528.771V494.742H1439.11V528.771H1405.45ZM1405.45 493.38V460.134H1439.11V493.38H1405.45ZM1405.45 458.757V426.965H1439.11V458.757H1405.45ZM1405.45 422.85V390.104H1439.11V422.85H1405.45ZM1405.45 388.727V354.698H1439.11V388.727H1405.45ZM1405.45 353.337V320.074H1439.11V353.337H1405.45ZM1405.45 318.713V284.684H1439.11V318.713H1405.45ZM1405.45 283.323V252.313H1439.11V283.323H1405.45ZM1404.07 283.323H1370.41V252.313H1404.07V283.323ZM1369.04 283.323H1335.38V252.313H1369.04V283.323ZM1334 283.323H1301.41V252.313H1334V283.323ZM1297.29 283.323H1265.33V252.313H1297.29V283.323ZM1263.95 283.323H1230.29V252.313H1263.95V283.323ZM1228.93 283.323H1195.26V252.313H1228.93V283.323ZM1193.89 283.323H1160.24V252.313H1193.89V283.323ZM1158.87 283.323H1126.28V252.313H1158.87V283.323ZM1122.18 283.323H1090.18V252.313H1122.18V283.323ZM1088.82 283.323H1055.16V252.313H1088.82V283.323ZM1053.79 283.323H1020.13V252.313H1053.79V283.323ZM1018.75 283.323H985.094V252.313H1018.75V283.323ZM983.716 283.323H951.155V252.313H983.716V283.323ZM947.037 283.323H915.024V252.313H947.037V283.323ZM913.662 283.323H880.005V252.313H913.662V283.323ZM878.627 283.323H844.578V252.313H878.627V283.323ZM843.216 283.323H809.559V252.313H843.216V283.323ZM808.182 283.323H775.62V252.313H808.182V283.323ZM771.519 283.323H739.489V252.313H771.519V283.323ZM738.128 283.323H704.47V252.313H738.128V283.323ZM703.093 283.323H669.435V252.313H703.093V283.323ZM668.058 283.323H634.4V252.313H668.058V283.323ZM633.039 283.323H600.493V252.313H633.039V283.323ZM596.391 283.323H564.362V252.313H596.391V283.323ZM562.984 283.323H529.327V252.313H562.984V283.323ZM527.95 283.323H494.292V252.313H527.95V283.323ZM492.93 283.323H459.273V252.313H492.93V283.323ZM457.895 283.323H425.365V252.313H457.895V283.323ZM421.264 283.323H389.203V252.313H421.264V283.323ZM387.841 283.323H354.184V252.313H387.841V283.323ZM352.806 283.323H319.149V252.313H352.806V283.323ZM317.772 283.323H284.114V252.313H317.772V283.323ZM282.737 283.323H250.222V252.313H282.737V283.323ZM282.737 284.684V318.713H250.222V284.684H282.737ZM282.737 320.074V353.337H250.222V320.074H282.737ZM282.737 354.698V388.727H250.222V354.698H282.737ZM282.737 390.088V422.835H250.222V390.088H282.737ZM282.737 426.949V458.741H250.222V426.949H282.737ZM282.737 460.118V493.365H250.222V460.118H282.737ZM282.737 494.742V528.771H250.222V494.742H282.737ZM282.737 530.132V563.379H250.222V530.132H282.737ZM282.737 564.756V598.253H250.222V564.756H282.737ZM282.737 602.367V633.408H250.222V602.367H282.737ZM282.737 634.769V668.799H250.222V634.769H282.737ZM282.737 670.16V703.407H250.222V670.16H282.737ZM282.737 704.783V738.812H250.222V704.783H282.737ZM284.114 704.783H317.772V738.812H284.114V704.783ZM319.149 704.783H352.806V738.812H319.149V704.783ZM354.184 704.783H387.841V738.812H354.184V704.783ZM389.219 704.783H421.279V738.812H389.219V704.783ZM425.381 704.783H457.911V738.812H425.381V704.783ZM459.273 704.783H492.93V738.812H459.273V704.783ZM494.308 704.783H527.965V738.812H494.308V704.783ZM529.343 704.783H563V738.812H529.343V704.783ZM564.378 704.783H596.407V738.812H564.378V704.783ZM600.524 704.783H633.07V738.812H600.524V704.783ZM634.432 704.783H668.089V738.812H634.432V704.783ZM669.467 704.783H703.124V738.812H669.467V704.783ZM704.502 704.783H738.159V738.812H704.502V704.783ZM739.536 704.783H771.566V738.812H739.536V704.783ZM775.667 704.783H808.229V738.812H775.667V704.783ZM809.59 704.783H843.248V738.812H809.59V704.783ZM844.625 704.783H878.674V738.812H844.625V704.783ZM880.036 704.783H913.693V738.812H880.036V704.783ZM915.071 704.783H947.084V738.812H915.071V704.783ZM951.186 704.783H983.747V738.812H951.186V704.783ZM985.125 704.783H1018.78V738.812H985.125V704.783ZM1020.16 704.783H1053.82V738.812H1020.16V704.783ZM1055.19 704.783H1088.85V738.812H1055.19V704.783ZM1090.23 704.783H1122.23V738.812H1090.23V704.783ZM1126.33 704.783H1158.92V738.812H1126.33V704.783ZM1160.28 704.783H1193.94V738.812H1160.28V704.783ZM1195.32 704.783H1228.99V738.812H1195.32V704.783ZM1230.35 704.783H1264.01V738.812H1230.35V704.783ZM1265.39 704.783H1297.35V738.812H1265.39V704.783ZM1301.47 704.783H1334.06V738.812H1301.47V704.783ZM1335.44 704.783H1369.1V738.812H1335.44V704.783ZM1370.48 704.783H1404.13V738.812H1370.48V704.783ZM1405.51 704.783H1439.17V738.812H1405.51V704.783ZM1440.53 704.783H1472.5V738.812H1440.53V704.783ZM1440.53 703.407V670.16H1472.5V703.407H1440.53ZM1440.53 668.783V634.754H1472.5V668.783H1440.53ZM1440.53 633.393V602.352H1472.5V633.393H1440.53ZM1440.53 598.237V564.74H1472.5V598.237H1440.53ZM1440.53 563.363V530.116H1472.5V563.363H1440.53ZM1440.53 528.739V494.71H1472.5V528.739H1440.53ZM1440.53 493.349V460.102H1472.5V493.349H1440.53ZM1440.53 458.726V426.934H1472.5V458.726H1440.53ZM1440.53 422.819V390.073H1472.5V422.819H1440.53ZM1440.53 388.696V354.667H1472.5V388.696H1440.53ZM1440.53 353.306V320.043H1472.5V353.306H1440.53ZM1440.53 318.682V284.653H1472.5V318.682H1440.53ZM1440.53 283.292V252.282H1472.5V283.292H1440.53ZM249.878 740.221H282.392V772.935H249.878V740.221ZM283.754 740.221H317.412V772.935H283.754V740.221ZM318.789 740.221H352.446V772.935H318.789V740.221ZM353.824 740.221H387.481V772.935H353.824V740.221ZM388.859 740.221H420.919V772.935H388.859V740.221ZM425.021 740.221H457.551V772.935H425.021V740.221ZM458.913 740.221H492.57V772.935H458.913V740.221ZM493.948 740.221H527.605V772.935H493.948V740.221ZM528.983 740.221H562.64V772.935H528.983V740.221ZM564.018 740.221H596.047V772.935H564.018V740.221ZM600.164 740.221H632.71V772.935H600.164V740.221ZM634.072 740.221H667.729V772.935H634.072V740.221ZM669.107 740.221H702.764V772.935H669.107V740.221ZM704.141 740.221H737.799V772.935H704.141V740.221ZM739.176 740.221H771.206V772.935H739.176V740.221ZM775.307 740.221H807.868V772.935H775.307V740.221ZM809.23 740.221H842.888V772.935H809.23V740.221ZM844.265 740.221H878.314V772.935H844.265V740.221ZM879.676 740.221H913.333V772.935H879.676V740.221ZM914.711 740.221H946.724V772.935H914.711V740.221ZM950.826 740.221H983.387V772.935H950.826V740.221ZM984.765 740.221H1018.42V772.935H984.765V740.221ZM1019.8 740.221H1053.46V772.935H1019.8V740.221ZM1054.83 740.221H1088.49V772.935H1054.83V740.221ZM1089.87 740.221H1121.87V772.935H1089.87V740.221ZM1125.97 740.221H1158.56V772.935H1125.97V740.221ZM1159.92 740.221H1193.58V772.935H1159.92V740.221ZM1194.96 740.221H1228.63V772.935H1194.96V740.221ZM1229.99 740.221H1263.65V772.935H1229.99V740.221ZM1265.03 740.221H1296.99V772.935H1265.03V740.221ZM1301.11 740.221H1333.7V772.935H1301.11V740.221ZM1335.08 740.221H1368.74V772.935H1335.08V740.221ZM1370.12 740.221H1403.77V772.935H1370.12V740.221ZM1405.15 740.221H1438.81V772.935H1405.15V740.221ZM1440.17 740.221H1472.14V772.935H1440.17V740.221ZM1472.14 248.214H1440.17V214.686H1472.14V248.214ZM1438.81 248.214H1405.15V214.686H1438.81V248.214ZM1403.77 248.214H1370.12V214.686H1403.77V248.214ZM1368.74 248.214H1335.08V214.686H1368.74V248.214ZM1333.7 248.214H1301.11V214.686H1333.7V248.214ZM1296.99 248.214H1265.03V214.686H1296.99V248.214ZM1263.65 248.214H1229.99V214.686H1263.65V248.214ZM1228.63 248.214H1194.96V214.686H1228.63V248.214ZM1193.6 248.214H1159.94V214.686H1193.6V248.214ZM1158.58 248.214H1125.98V214.686H1158.58V248.214ZM1121.88 248.214H1089.89V214.686H1121.88V248.214ZM1088.52 248.214H1054.87V214.686H1088.52V248.214ZM1053.49 248.214H1019.83V214.686H1053.49V248.214ZM1018.45 248.214H984.796V214.686H1018.45V248.214ZM983.419 248.214H950.857V214.686H983.419V248.214ZM946.74 248.214H914.726V214.686H946.74V248.214ZM913.365 248.214H879.707V214.686H913.365V248.214ZM878.33 248.214H844.281V214.686H878.33V248.214ZM842.919 248.214H809.262V214.686H842.919V248.214ZM807.884 248.214H775.323V214.686H807.884V248.214ZM771.221 248.214H739.192V214.686H771.221V248.214ZM737.83 248.214H704.173V214.686H737.83V248.214ZM702.795 248.214H669.138V214.686H702.795V248.214ZM667.76 248.214H634.103V214.686H667.76V248.214ZM632.741 248.214H600.195V214.686H632.741V248.214ZM596.094 248.214H564.065V214.686H596.094V248.214ZM562.687 248.214H529.03V214.686H562.687V248.214ZM527.652 248.214H493.995V214.686H527.652V248.214ZM492.633 248.214H458.976V214.686H492.633V248.214ZM457.598 248.214H425.068V214.686H457.598V248.214ZM420.966 248.214H388.906V214.686H420.966V248.214ZM387.544 248.214H353.887V214.686H387.544V248.214ZM352.509 248.214H318.852V214.686H352.509V248.214ZM317.474 248.214H283.817V214.686H317.474V248.214ZM282.439 248.214H249.925V214.686H282.439V248.214ZM245.823 248.214H213.747V214.686H245.823V248.214ZM212.385 252.329V283.339H178.728V252.329H212.385ZM213.747 252.329H245.823V283.339H213.747V252.329ZM245.823 284.715V318.745H213.747V284.715H245.823ZM245.823 320.106V353.368H213.747V320.106H245.823ZM245.823 354.729V388.759H213.747V354.729H245.823ZM245.823 390.12V422.866H213.747V390.12H245.823ZM212.385 426.981V458.772H178.728V426.981H212.385ZM213.747 426.981H245.823V458.772H213.747V426.981ZM245.823 460.149V493.396H213.747V460.149H245.823ZM245.823 494.773V528.802H213.747V494.773H245.823ZM245.823 530.163V563.41H213.747V530.163H245.823ZM245.823 564.787V598.284H213.747V564.787H245.823ZM212.385 602.399V633.44H178.728V602.399H212.385ZM213.747 602.399H245.823V633.44H213.747V602.399ZM245.823 634.801V668.83H213.747V634.801H245.823ZM245.823 670.191V703.438H213.747V670.191H245.823ZM245.823 704.815V738.844H213.747V704.815H245.823ZM245.823 740.205V772.92H213.747V740.205H245.823ZM1476.27 772.92V740.205H1508.88V772.92H1476.27ZM1476.27 738.828V704.799H1508.88V738.828H1476.27ZM1476.27 703.438V670.191H1508.88V703.438H1476.27ZM1476.27 668.814V634.785H1508.88V668.814H1476.27ZM1476.27 633.424V602.383H1508.88V633.424H1476.27ZM1476.27 598.268V564.771H1508.88V598.268H1476.27ZM1476.27 563.394V530.148H1508.88V563.394H1476.27ZM1476.27 528.771V494.742H1508.88V528.771H1476.27ZM1476.27 493.38V460.134H1508.88V493.38H1476.27ZM1476.27 458.757V426.965H1508.88V458.757H1476.27ZM1476.27 422.85V390.104H1508.88V422.85H1476.27ZM1476.27 388.727V354.698H1508.88V388.727H1476.27ZM1476.27 353.337V320.074H1508.88V353.337H1476.27ZM1476.27 318.713V284.684H1508.88V318.713H1476.27ZM1476.27 283.323V252.313H1508.88V283.323H1476.27ZM1476.27 248.199V214.67H1508.88V248.199H1476.27ZM1476.27 213.293V180.047H1508.88V213.293H1476.27ZM1472.15 213.293H1440.19V180.047H1472.15V213.293ZM1438.82 213.293H1405.17V180.047H1438.82V213.293ZM1403.79 213.293H1370.13V180.047H1403.79V213.293ZM1368.76 213.293H1335.1V180.047H1368.76V213.293ZM1333.72 213.293H1301.13V180.047H1333.72V213.293ZM1297.01 213.293H1265.04V180.047H1297.01V213.293ZM1263.67 213.293H1230.01V180.047H1263.67V213.293ZM1228.65 213.293H1194.97V180.047H1228.65V213.293ZM1193.61 213.293H1159.95V180.047H1193.61V213.293ZM1158.59 213.293H1126V180.047H1158.59V213.293ZM1121.9 213.293H1089.9V180.047H1121.9V213.293ZM1088.54 213.293H1054.88V180.047H1088.54V213.293ZM1053.5 213.293H1019.85V180.047H1053.5V213.293ZM1018.47 213.293H984.812V180.047H1018.47V213.293ZM983.434 213.293H950.873V180.047H983.434V213.293ZM946.756 213.293H914.742V180.047H946.756V213.293ZM913.38 213.293H879.723V180.047H913.38V213.293ZM878.345 213.293H844.297V180.047H878.345V213.293ZM842.935 213.293H809.277V180.047H842.935V213.293ZM807.9 213.293H775.338V180.047H807.9V213.293ZM771.237 213.293H739.208V180.047H771.237V213.293ZM737.846 213.293H704.188V180.047H737.846V213.293ZM702.811 213.293H669.154V180.047H702.811V213.293ZM667.776 213.293H634.119V180.047H667.776V213.293ZM632.757 213.293H600.211V180.047H632.757V213.293ZM596.109 213.293H564.08V180.047H596.109V213.293ZM562.703 213.293H529.045V180.047H562.703V213.293ZM527.668 213.293H494.011V180.047H527.668V213.293ZM492.649 213.293H458.991V180.047H492.649V213.293ZM457.614 213.293H425.084V180.047H457.614V213.293ZM420.982 213.293H388.922V180.047H420.982V213.293ZM387.56 213.293H353.902V180.047H387.56V213.293ZM352.525 213.293H318.867V180.047H352.525V213.293ZM317.49 213.293H283.833V180.047H317.49V213.293ZM282.455 213.293H249.94V180.047H282.455V213.293ZM245.839 213.293H213.763V180.047H245.839V213.293ZM212.401 213.293H178.744V180.047H212.401V213.293ZM212.401 214.67V248.199H178.744V214.67H212.401ZM177.366 252.313V283.323H143.709V252.313H177.366ZM177.366 284.7V318.729H143.709V284.7H177.366ZM178.744 284.7H212.401V318.729H178.744V284.7ZM212.401 320.09V353.353H178.744V320.09H212.401ZM212.401 354.714V388.743H178.744V354.714H212.401ZM212.401 390.104V422.85H178.744V390.104H212.401ZM177.366 426.965V458.757H143.709V426.965H177.366ZM177.366 460.134V493.38H143.709V460.134H177.366ZM178.744 460.134H212.401V493.38H178.744V460.134ZM212.401 494.757V528.786H178.744V494.757H212.401ZM212.401 530.148V563.394H178.744V530.148H212.401ZM212.401 564.771V598.268H178.744V564.771H212.401ZM177.366 602.383V633.424H143.709V602.383H177.366ZM177.366 634.785V668.814H143.709V634.785H177.366ZM178.744 634.785H212.401V668.814H178.744V634.785ZM212.401 670.175V703.422H178.744V670.175H212.401ZM212.401 704.799V738.828H178.744V704.799H212.401ZM212.401 740.189V772.904H178.744V740.189H212.401ZM212.401 777.019V808.842H178.744V777.019H212.401ZM213.763 777.019H245.839V808.842H213.763V777.019ZM249.94 777.019H282.455V808.842H249.94V777.019ZM283.817 777.019H317.474V808.842H283.817V777.019ZM318.852 777.019H352.509V808.842H318.852V777.019ZM353.887 777.019H387.544V808.842H353.887V777.019ZM388.922 777.019H420.982V808.842H388.922V777.019ZM425.084 777.019H457.614V808.842H425.084V777.019ZM458.976 777.019H492.633V808.842H458.976V777.019ZM494.011 777.019H527.668V808.842H494.011V777.019ZM529.045 777.019H562.703V808.842H529.045V777.019ZM564.08 777.019H596.109V808.842H564.08V777.019ZM600.227 777.019H632.772V808.842H600.227V777.019ZM634.134 777.019H667.792V808.842H634.134V777.019ZM669.169 777.019H702.826V808.842H669.169V777.019ZM704.204 777.019H737.861V808.842H704.204V777.019ZM739.239 777.019H771.268V808.842H739.239V777.019ZM775.37 777.019H807.931V808.842H775.37V777.019ZM809.293 777.019H842.95V808.842H809.293V777.019ZM844.328 777.019H878.377V808.842H844.328V777.019ZM879.738 777.019H913.396V808.842H879.738V777.019ZM914.773 777.019H946.787V808.842H914.773V777.019ZM950.888 777.019H983.45V808.842H950.888V777.019ZM984.827 777.019H1018.48V808.842H984.827V777.019ZM1019.86 777.019H1053.52V808.842H1019.86V777.019ZM1054.9 777.019H1088.55V808.842H1054.9V777.019ZM1089.93 777.019H1121.93V808.842H1089.93V777.019ZM1126.03 777.019H1158.62V808.842H1126.03V777.019ZM1159.99 777.019H1193.64V808.842H1159.99V777.019ZM1195.02 777.019H1228.69V808.842H1195.02V777.019ZM1230.06 777.019H1263.71V808.842H1230.06V777.019ZM1265.09 777.019H1297.06V808.842H1265.09V777.019ZM1301.17 777.019H1333.77V808.842H1301.17V777.019ZM1335.14 777.019H1368.8V808.842H1335.14V777.019ZM1370.18 777.019H1403.84V808.842H1370.18V777.019ZM1405.21 777.019H1438.87V808.842H1405.21V777.019ZM1440.23 777.019H1472.2V808.842H1440.23V777.019ZM1476.3 777.019H1508.91V808.842H1476.3V777.019ZM1510.29 777.019H1543.95V808.842H1510.29V777.019ZM1510.29 772.904V740.189H1543.95V772.904H1510.29ZM1510.29 738.812V704.783H1543.95V738.812H1510.29ZM1510.29 703.422V670.175H1543.95V703.422H1510.29ZM1510.29 668.799V634.769H1543.95V668.799H1510.29ZM1510.29 633.408V602.367H1543.95V633.408H1510.29ZM1510.29 598.253V564.756H1543.95V598.253H1510.29ZM1510.29 563.379V530.132H1543.95V563.379H1510.29ZM1510.29 528.755V494.726H1543.95V528.755H1510.29ZM1510.29 493.365V460.118H1543.95V493.365H1510.29ZM1510.29 458.741V426.949H1543.95V458.741H1510.29ZM1510.29 422.835V390.088H1543.95V422.835H1510.29ZM1510.29 388.712V354.682H1543.95V388.712H1510.29ZM1510.29 353.321V320.059H1543.95V353.321H1510.29ZM1510.29 318.698V284.669H1543.95V318.698H1510.29ZM1510.29 283.307V252.298H1543.95V283.307H1510.29ZM1510.29 248.183V214.655H1543.95V248.183H1510.29ZM1510.29 213.278V180.031H1543.95V213.278H1510.29ZM1510.29 178.654V144.625H1543.95V178.654H1510.29ZM1508.91 178.654H1476.3V144.625H1508.91V178.654ZM1472.18 178.654H1440.22V144.625H1472.18V178.654ZM1438.86 178.654H1405.2V144.625H1438.86V178.654ZM1403.82 178.654H1370.16V144.625H1403.82V178.654ZM1368.79 178.654H1335.13V144.625H1368.79V178.654ZM1333.75 178.654H1301.16V144.625H1333.75V178.654ZM1297.04 178.654H1265.08V144.625H1297.04V178.654ZM1263.7 178.654H1230.04V144.625H1263.7V178.654ZM1228.68 178.654H1195.01V144.625H1228.68V178.654ZM1193.64 178.654H1159.99V144.625H1193.64V178.654ZM1158.62 178.654H1126.03V144.625H1158.62V178.654ZM1121.93 178.654H1089.93V144.625H1121.93V178.654ZM1088.57 178.654H1054.91V144.625H1088.57V178.654ZM1053.54 178.654H1019.88V144.625H1053.54V178.654ZM1018.5 178.654H984.843V144.625H1018.5V178.654ZM983.466 178.654H950.904V144.625H983.466V178.654ZM946.787 178.654H914.773V144.625H946.787V178.654ZM913.411 178.654H879.754V144.625H913.411V178.654ZM878.377 178.654H844.328V144.625H878.377V178.654ZM842.966 178.654H809.309V144.625H842.966V178.654ZM807.931 178.654H775.37V144.625H807.931V178.654ZM771.268 178.654H739.239V144.625H771.268V178.654ZM737.877 178.654H704.22V144.625H737.877V178.654ZM702.842 178.654H669.185V144.625H702.842V178.654ZM667.807 178.654H634.15V144.625H667.807V178.654ZM632.788 178.654H600.242V144.625H632.788V178.654ZM596.141 178.654H564.112V144.625H596.141V178.654ZM562.734 178.654H529.077V144.625H562.734V178.654ZM527.699 178.654H494.042V144.625H527.699V178.654ZM492.68 178.654H459.023V144.625H492.68V178.654ZM457.645 178.654H425.115V144.625H457.645V178.654ZM421.013 178.654H388.953V144.625H421.013V178.654ZM387.591 178.654H353.934V144.625H387.591V178.654ZM352.556 178.654H318.899V144.625H352.556V178.654ZM317.521 178.654H283.864V144.625H317.521V178.654ZM282.486 178.654H249.972V144.625H282.486V178.654ZM245.87 178.654H213.794V144.625H245.87V178.654ZM212.432 178.654H178.775V144.625H212.432V178.654ZM177.397 178.654H143.74V144.625H177.397V178.654ZM177.397 180.031V213.278H143.74V180.031H177.397ZM177.397 214.655V248.183H143.74V214.655H177.397ZM142.362 252.298V283.307H108.705V252.298H142.362ZM142.362 284.684V318.713H108.705V284.684H142.362ZM107.328 318.713H74.8287V284.684H107.328V318.713ZM107.328 320.09V353.353H74.8287V320.09H107.328ZM108.705 320.09H142.362V353.353H108.705V320.09ZM143.74 320.09H177.397V353.353H143.74V320.09ZM177.397 354.714V388.743H143.74V354.714H177.397ZM177.397 390.104V422.85H143.74V390.104H177.397ZM142.362 426.965V458.757H108.705V426.965H142.362ZM142.362 460.134V493.38H108.705V460.134H142.362ZM107.328 493.38H74.8287V460.134H107.328V493.38ZM107.328 494.757V528.786H74.8287V494.757H107.328ZM108.705 494.757H142.362V528.786H108.705V494.757ZM143.74 494.757H177.397V528.786H143.74V494.757ZM177.397 530.148V563.394H143.74V530.148H177.397ZM177.397 564.771V598.268H143.74V564.771H177.397ZM142.362 602.383V633.424H108.705V602.383H142.362ZM142.362 634.785V668.814H108.705V634.785H142.362ZM107.328 668.814H74.8287V634.785H107.328V668.814ZM107.328 670.191V703.438H74.8287V670.191H107.328ZM108.705 670.191H142.362V703.438H108.705V670.191ZM143.74 670.191H177.397V703.438H143.74V670.191ZM177.397 704.815V738.844H143.74V704.815H177.397ZM177.397 740.205V772.92H143.74V740.205H177.397ZM177.397 777.035V808.858H143.74V777.035H177.397ZM177.397 810.235V843.481H143.74V810.235H177.397ZM178.775 810.235H212.432V843.481H178.775V810.235ZM213.81 810.235H245.886V843.481H213.81V810.235ZM249.987 810.235H282.502V843.481H249.987V810.235ZM283.864 810.235H317.521V843.481H283.864V810.235ZM318.899 810.235H352.556V843.481H318.899V810.235ZM353.934 810.235H387.591V843.481H353.934V810.235ZM388.969 810.235H421.029V843.481H388.969V810.235ZM425.131 810.235H457.661V843.481H425.131V810.235ZM459.023 810.235H492.68V843.481H459.023V810.235ZM494.057 810.235H527.715V843.481H494.057V810.235ZM529.092 810.235H562.75V843.481H529.092V810.235ZM564.127 810.235H596.156V843.481H564.127V810.235ZM600.274 810.235H632.819V843.481H600.274V810.235ZM634.181 810.235H667.839V843.481H634.181V810.235ZM669.216 810.235H702.873V843.481H669.216V810.235ZM704.251 810.235H737.908V843.481H704.251V810.235ZM739.286 810.235H771.315V843.481H739.286V810.235ZM775.417 810.235H807.978V843.481H775.417V810.235ZM809.34 810.235H842.997V843.481H809.34V810.235ZM844.375 810.235H878.424V843.481H844.375V810.235ZM879.785 810.235H913.443V843.481H879.785V810.235ZM914.82 810.235H946.834V843.481H914.82V810.235ZM950.935 810.235H983.497V843.481H950.935V810.235ZM984.874 810.235H1018.53V843.481H984.874V810.235ZM1019.91 810.235H1053.57V843.481H1019.91V810.235ZM1054.94 810.235H1088.6V843.481H1054.94V810.235ZM1089.98 810.235H1121.98V843.481H1089.98V810.235ZM1126.08 810.235H1158.67V843.481H1126.08V810.235ZM1160.03 810.235H1193.69V843.481H1160.03V810.235ZM1195.07 810.235H1228.74V843.481H1195.07V810.235ZM1230.1 810.235H1263.76V843.481H1230.1V810.235ZM1265.14 810.235H1297.1V843.481H1265.14V810.235ZM1301.22 810.235H1333.81V843.481H1301.22V810.235ZM1335.19 810.235H1368.85V843.481H1335.19V810.235ZM1370.23 810.235H1403.88V843.481H1370.23V810.235ZM1405.26 810.235H1438.92V843.481H1405.26V810.235ZM1440.28 810.235H1472.25V843.481H1440.28V810.235ZM1476.35 810.235H1508.96V843.481H1476.35V810.235ZM1510.33 810.235H1543.99V843.481H1510.33V810.235ZM1545.37 810.235H1579.03V843.481H1545.37V810.235ZM1545.37 808.858V777.035H1579.03V808.858H1545.37ZM1545.37 772.92V740.205H1579.03V772.92H1545.37ZM1545.37 738.828V704.799H1579.03V738.828H1545.37ZM1545.37 703.438V670.191H1579.03V703.438H1545.37ZM1545.37 668.814V634.785H1579.03V668.814H1545.37ZM1545.37 633.424V602.383H1579.03V633.424H1545.37ZM1545.37 598.268V564.771H1579.03V598.268H1545.37ZM1545.37 563.394V530.148H1579.03V563.394H1545.37ZM1545.37 528.771V494.742H1579.03V528.771H1545.37ZM1545.37 493.38V460.134H1579.03V493.38H1545.37ZM1545.37 458.757V426.965H1579.03V458.757H1545.37ZM1545.37 422.85V390.104H1579.03V422.85H1545.37ZM1545.37 388.727V354.698H1579.03V388.727H1545.37ZM1545.37 353.337V320.074H1579.03V353.337H1545.37ZM1545.37 318.713V284.684H1579.03V318.713H1545.37ZM1545.37 283.323V252.313H1579.03V283.323H1545.37ZM1545.37 248.199V214.67H1579.03V248.199H1545.37ZM1545.37 213.293V180.047H1579.03V213.293H1545.37ZM1545.37 178.67V144.641H1579.03V178.67H1545.37ZM1545.37 143.28V110.033H1579.03V143.28H1545.37ZM1543.99 143.28H1510.33V110.033H1543.99V143.28ZM1508.96 143.28H1476.35V110.033H1508.96V143.28ZM1472.23 143.28H1440.27V110.033H1472.23V143.28ZM1438.9 143.28H1405.25V110.033H1438.9V143.28ZM1403.87 143.28H1370.21V110.033H1403.87V143.28ZM1368.83 143.28H1335.18V110.033H1368.83V143.28ZM1333.8 143.28H1301.21V110.033H1333.8V143.28ZM1297.09 143.28H1265.12V110.033H1297.09V143.28ZM1263.74 143.28H1230.09V110.033H1263.74V143.28ZM1228.73 143.28H1195.05V110.033H1228.73V143.28ZM1193.69 143.28H1160.03V110.033H1193.69V143.28ZM1158.67 143.28H1126.08V110.033H1158.67V143.28ZM1121.98 143.28H1089.98V110.033H1121.98V143.28ZM1088.62 143.28H1054.96V110.033H1088.62V143.28ZM1053.58 143.28H1019.92V110.033H1053.58V143.28ZM1018.55 143.28H984.89V110.033H1018.55V143.28ZM983.513 143.28H950.951V110.033H983.513V143.28ZM946.834 143.28H914.82V110.033H946.834V143.28ZM913.458 143.28H879.801V110.033H913.458V143.28ZM878.424 143.28H844.375V110.033H878.424V143.28ZM843.013 143.28H809.356V110.033H843.013V143.28ZM807.978 143.28H775.417V110.033H807.978V143.28ZM771.315 143.28H739.286V110.033H771.315V143.28ZM737.924 143.28H704.267V110.033H737.924V143.28ZM702.889 143.28H669.232V110.033H702.889V143.28ZM667.854 143.28H634.197V110.033H667.854V143.28ZM632.835 143.28H600.289V110.033H632.835V143.28ZM596.188 143.28H564.159V110.033H596.188V143.28ZM562.781 143.28H529.124V110.033H562.781V143.28ZM527.746 143.28H494.089V110.033H527.746V143.28ZM492.727 143.28H459.07V110.033H492.727V143.28ZM457.692 143.28H425.162V110.033H457.692V143.28ZM421.06 143.28H389V110.033H421.06V143.28ZM387.638 143.28H353.981V110.033H387.638V143.28ZM352.603 143.28H318.946V110.033H352.603V143.28ZM317.568 143.28H283.911V110.033H317.568V143.28ZM282.533 143.28H250.019V110.033H282.533V143.28ZM245.917 143.28H213.841V110.033H245.917V143.28ZM212.479 143.28H178.822V110.033H212.479V143.28ZM177.444 143.28H143.787V110.033H177.444V143.28ZM142.409 143.28H108.752V110.033H142.409V143.28ZM142.409 144.656V178.685H108.752V144.656H142.409ZM142.409 180.047V213.293H108.752V180.047H142.409ZM142.409 214.67V248.199H108.752V214.67H142.409ZM107.375 252.313V283.323H74.8757V252.313H107.375ZM74.8757 354.714H107.375V388.743H74.8757V354.714ZM108.736 354.714H142.394V388.743H108.736V354.714ZM142.394 390.104V422.85H108.736V390.104H142.394ZM107.359 426.965V458.757H74.86V426.965H107.359ZM74.86 530.148H107.359V563.394H74.86V530.148ZM108.721 530.148H142.378V563.394H108.721V530.148ZM142.378 564.771V598.268H108.721V564.771H142.378ZM107.343 602.383V633.424H74.8444V602.383H107.343ZM74.8444 704.815H107.343V738.844H74.8444V704.815ZM108.705 704.815H142.362V738.844H108.705V704.815ZM142.362 740.205V772.92H108.705V740.205H142.362ZM142.362 777.035V808.858H108.705V777.035H142.362ZM142.362 810.235V843.481H108.705V810.235H142.362ZM107.328 843.481H74.8287V810.235H107.328V843.481ZM107.328 844.858V878.887H74.8287V844.858H107.328ZM108.705 844.858H142.362V878.887H108.705V844.858ZM143.74 844.858H177.397V878.887H143.74V844.858ZM178.775 844.858H212.432V878.887H178.775V844.858ZM213.81 844.858H245.886V878.887H213.81V844.858ZM249.987 844.858H282.502V878.887H249.987V844.858ZM283.864 844.858H317.521V878.887H283.864V844.858ZM318.899 844.858H352.556V878.887H318.899V844.858ZM353.934 844.858H387.591V878.887H353.934V844.858ZM388.969 844.858H421.029V878.887H388.969V844.858ZM425.131 844.858H457.661V878.887H425.131V844.858ZM459.023 844.858H492.68V878.887H459.023V844.858ZM494.057 844.858H527.715V878.887H494.057V844.858ZM529.092 844.858H562.75V878.887H529.092V844.858ZM564.127 844.858H596.156V878.887H564.127V844.858ZM600.274 844.858H632.819V878.887H600.274V844.858ZM634.181 844.858H667.839V878.887H634.181V844.858ZM669.216 844.858H702.873V878.887H669.216V844.858ZM704.251 844.858H737.908V878.887H704.251V844.858ZM739.286 844.858H771.315V878.887H739.286V844.858ZM775.417 844.858H807.978V878.887H775.417V844.858ZM809.34 844.858H842.997V878.887H809.34V844.858ZM844.375 844.858H878.424V878.887H844.375V844.858ZM879.785 844.858H913.443V878.887H879.785V844.858ZM914.82 844.858H946.834V878.887H914.82V844.858ZM950.935 844.858H983.497V878.887H950.935V844.858ZM984.874 844.858H1018.53V878.887H984.874V844.858ZM1019.91 844.858H1053.57V878.887H1019.91V844.858ZM1054.94 844.858H1088.6V878.887H1054.94V844.858ZM1089.98 844.858H1121.98V878.887H1089.98V844.858ZM1126.08 844.858H1158.67V878.887H1126.08V844.858ZM1160.03 844.858H1193.69V878.887H1160.03V844.858ZM1195.07 844.858H1228.74V878.887H1195.07V844.858ZM1230.1 844.858H1263.76V878.887H1230.1V844.858ZM1265.14 844.858H1297.1V878.887H1265.14V844.858ZM1301.22 844.858H1333.81V878.887H1301.22V844.858ZM1335.19 844.858H1368.85V878.887H1335.19V844.858ZM1370.23 844.858H1403.88V878.887H1370.23V844.858ZM1405.26 844.858H1438.92V878.887H1405.26V844.858ZM1440.28 844.858H1472.25V878.887H1440.28V844.858ZM1476.35 844.858H1508.96V878.887H1476.35V844.858ZM1510.33 844.858H1543.99V878.887H1510.33V844.858ZM1545.37 844.858H1579.03V878.887H1545.37V844.858ZM1580.4 843.481V810.235H1614.06V843.481H1580.4ZM1580.4 808.858V777.035H1614.06V808.858H1580.4ZM1580.4 772.92V740.205H1614.06V772.92H1580.4ZM1580.4 738.828V704.799H1614.06V738.828H1580.4ZM1580.4 703.438V670.191H1614.06V703.438H1580.4ZM1580.4 668.814V634.785H1614.06V668.814H1580.4ZM1580.4 633.424V602.383H1614.06V633.424H1580.4ZM1580.4 598.268V564.771H1614.06V598.268H1580.4ZM1580.4 563.394V530.148H1614.06V563.394H1580.4ZM1580.4 528.771V494.742H1614.06V528.771H1580.4ZM1580.4 493.38V460.134H1614.06V493.38H1580.4ZM1580.4 458.757V426.965H1614.06V458.757H1580.4ZM1580.4 422.85V390.104H1614.06V422.85H1580.4ZM1580.4 388.727V354.698H1614.06V388.727H1580.4ZM1580.4 353.337V320.074H1614.06V353.337H1580.4ZM1580.4 318.713V284.684H1614.06V318.713H1580.4ZM1580.4 283.323V252.313H1614.06V283.323H1580.4ZM1580.4 248.199V214.67H1614.06V248.199H1580.4ZM1580.4 213.293V180.047H1614.06V213.293H1580.4ZM1580.4 178.67V144.641H1614.06V178.67H1580.4ZM1580.4 143.28V110.033H1614.06V143.28H1580.4ZM1580.4 108.656V76.8953H1614.06V108.656H1580.4ZM1579.03 108.656H1545.37V76.8953H1579.03V108.656ZM1543.99 108.656H1510.33V76.8953H1543.99V108.656ZM1508.96 108.656H1476.35V76.8953H1508.96V108.656ZM1472.23 108.656H1440.27V76.8953H1472.23V108.656ZM1438.9 108.656H1405.25V76.8953H1438.9V108.656ZM1403.87 108.656H1370.21V76.8953H1403.87V108.656ZM1368.83 108.656H1335.18V76.8953H1368.83V108.656ZM1333.8 108.656H1301.21V76.8953H1333.8V108.656ZM1297.09 108.656H1265.12V76.8953H1297.09V108.656ZM1263.74 108.656H1230.09V76.8953H1263.74V108.656ZM1228.73 108.656H1195.05V76.8953H1228.73V108.656ZM1193.69 108.656H1160.03V76.8953H1193.69V108.656ZM1158.67 108.656H1126.08V76.8953H1158.67V108.656ZM1121.98 108.656H1089.98V76.8953H1121.98V108.656ZM1088.62 108.656H1054.96V76.8953H1088.62V108.656ZM1053.58 108.656H1019.92V76.8953H1053.58V108.656ZM1018.55 108.656H984.89V76.8953H1018.55V108.656ZM983.513 108.656H950.951V76.8953H983.513V108.656ZM946.834 108.656H914.82V76.8953H946.834V108.656ZM913.458 108.656H879.801V76.8953H913.458V108.656ZM878.424 108.656H844.375V76.8953H878.424V108.656ZM843.013 108.656H809.356V76.8953H843.013V108.656ZM807.978 108.656H775.417V76.8953H807.978V108.656ZM771.315 108.656H739.286V76.8953H771.315V108.656ZM737.924 108.656H704.267V76.8953H737.924V108.656ZM702.889 108.656H669.232V76.8953H702.889V108.656ZM667.854 108.656H634.197V76.8953H667.854V108.656ZM632.835 108.656H600.289V76.8953H632.835V108.656ZM596.188 108.656H564.159V76.8953H596.188V108.656ZM562.781 108.656H529.124V76.8953H562.781V108.656ZM527.746 108.656H494.089V76.8953H527.746V108.656ZM492.727 108.656H459.07V76.8953H492.727V108.656ZM457.692 108.656H425.162V76.8953H457.692V108.656ZM421.06 108.656H389V76.8953H421.06V108.656ZM387.638 108.656H353.981V76.8953H387.638V108.656ZM352.603 108.656H318.946V76.8953H352.603V108.656ZM317.568 108.656H283.911V76.8953H317.568V108.656ZM282.533 108.656H250.019V76.8953H282.533V108.656ZM245.917 108.656H213.841V76.8953H245.917V108.656ZM212.479 108.656H178.822V76.8953H212.479V108.656ZM177.444 108.656H143.787V76.8953H177.444V108.656ZM142.409 108.656H108.752V76.8953H142.409V108.656ZM107.375 108.656H74.8757V76.8953H107.375V108.656ZM107.375 110.033V143.28H74.8757V110.033H107.375ZM107.375 144.656V178.685H74.8757V144.656H107.375ZM107.375 180.047V213.293H74.8757V180.047H107.375ZM107.375 214.67V248.199H74.8757V214.67H107.375ZM107.375 390.104V422.85H74.8757V390.104H107.375ZM107.375 564.771V598.268H74.8757V564.771H107.375ZM107.375 740.205V772.92H74.8757V740.205H107.375ZM107.375 777.035V808.858H74.8757V777.035H107.375ZM74.8757 880.249H107.375V913.495H74.8757V880.249ZM108.736 880.249H142.394V913.495H108.736V880.249ZM143.771 880.249H177.429V913.495H143.771V880.249ZM178.806 880.249H212.464V913.495H178.806V880.249ZM213.841 880.249H245.917V913.495H213.841V880.249ZM250.019 880.249H282.533V913.495H250.019V880.249ZM283.895 880.249H317.552V913.495H283.895V880.249ZM318.93 880.249H352.587V913.495H318.93V880.249ZM353.965 880.249H387.622V913.495H353.965V880.249ZM389 880.249H421.06V913.495H389V880.249ZM425.162 880.249H457.692V913.495H425.162V880.249ZM459.054 880.249H492.711V913.495H459.054V880.249ZM494.089 880.249H527.746V913.495H494.089V880.249ZM529.124 880.249H562.781V913.495H529.124V880.249ZM564.159 880.249H596.188V913.495H564.159V880.249ZM600.305 880.249H632.851V913.495H600.305V880.249ZM634.213 880.249H667.87V913.495H634.213V880.249ZM669.247 880.249H702.905V913.495H669.247V880.249ZM704.282 880.249H737.94V913.495H704.282V880.249ZM739.317 880.249H771.346V913.495H739.317V880.249ZM775.448 880.249H808.009V913.495H775.448V880.249ZM809.371 880.249H843.029V913.495H809.371V880.249ZM844.406 880.249H878.455V913.495H844.406V880.249ZM879.817 880.249H913.474V913.495H879.817V880.249ZM914.852 880.249H946.865V913.495H914.852V880.249ZM950.967 880.249H983.528V913.495H950.967V880.249ZM984.906 880.249H1018.56V913.495H984.906V880.249ZM1019.94 880.249H1053.6V913.495H1019.94V880.249ZM1054.98 880.249H1088.63V913.495H1054.98V880.249ZM1090.01 880.249H1122.01V913.495H1090.01V880.249ZM1126.11 880.249H1158.7V913.495H1126.11V880.249ZM1160.06 880.249H1193.72V913.495H1160.06V880.249ZM1195.1 880.249H1228.77V913.495H1195.1V880.249ZM1230.13 880.249H1263.79V913.495H1230.13V880.249ZM1265.17 880.249H1297.14V913.495H1265.17V880.249ZM1301.25 880.249H1333.85V913.495H1301.25V880.249ZM1335.22 880.249H1368.88V913.495H1335.22V880.249ZM1370.26 880.249H1403.92V913.495H1370.26V880.249ZM1405.29 880.249H1438.95V913.495H1405.29V880.249ZM1440.31 880.249H1472.28V913.495H1440.31V880.249ZM1476.38 880.249H1508.99V913.495H1476.38V880.249ZM1510.37 880.249H1544.02V913.495H1510.37V880.249ZM1545.4 880.249H1579.06V913.495H1545.4V880.249ZM1579.06 914.872V948.901H1545.4V914.872H1579.06ZM1580.44 914.872H1614.09V948.901H1580.44V914.872ZM1615.47 914.872H1647.42V948.901H1615.47V914.872ZM1615.47 913.495V880.249H1647.42V913.495H1615.47ZM1615.47 878.872V844.843H1647.42V878.872H1615.47ZM1615.47 843.481V810.235H1647.42V843.481H1615.47ZM1615.47 808.858V777.035H1647.42V808.858H1615.47ZM1615.47 772.92V740.205H1647.42V772.92H1615.47ZM1615.47 738.828V704.799H1647.42V738.828H1615.47ZM1615.47 703.438V670.191H1647.42V703.438H1615.47ZM1615.47 668.814V634.785H1647.42V668.814H1615.47ZM1615.47 633.424V602.383H1647.42V633.424H1615.47ZM1615.47 598.268V564.771H1647.42V598.268H1615.47ZM1615.47 563.394V530.148H1647.42V563.394H1615.47ZM1615.47 528.771V494.742H1647.42V528.771H1615.47ZM1615.47 493.38V460.134H1647.42V493.38H1615.47ZM1615.47 458.757V426.965H1647.42V458.757H1615.47ZM1615.47 422.85V390.104H1647.42V422.85H1615.47ZM1615.47 388.727V354.698H1647.42V388.727H1615.47ZM1615.47 353.337V320.074H1647.42V353.337H1615.47ZM1615.47 318.713V284.684H1647.42V318.713H1615.47ZM1615.47 283.323V252.313H1647.42V283.323H1615.47ZM1615.47 248.199V214.67H1647.42V248.199H1615.47ZM1615.47 213.293V180.047H1647.42V213.293H1615.47ZM1615.47 178.67V144.641H1647.42V178.67H1615.47ZM1615.47 143.28V110.033H1647.42V143.28H1615.47ZM74.7504 914.888H107.249V948.917H74.7504V914.888ZM108.611 914.888H142.269V948.917H108.611V914.888ZM143.646 914.888H177.303V948.917H143.646V914.888ZM178.681 914.888H212.338V948.917H178.681V914.888ZM213.716 914.888H245.792V948.917H213.716V914.888ZM249.894 914.888H282.408V948.917H249.894V914.888ZM283.77 914.888H317.427V948.917H283.77V914.888ZM318.805 914.888H352.462V948.917H318.805V914.888ZM353.84 914.888H387.497V948.917H353.84V914.888ZM388.875 914.888H420.935V948.917H388.875V914.888ZM425.037 914.888H457.567V948.917H425.037V914.888ZM458.929 914.888H492.586V948.917H458.929V914.888ZM493.964 914.888H527.621V948.917H493.964V914.888ZM528.998 914.888H562.656V948.917H528.998V914.888ZM564.033 914.888H596.062V948.917H564.033V914.888ZM600.18 914.888H632.725V948.917H600.18V914.888ZM634.087 914.888H667.745V948.917H634.087V914.888ZM669.122 914.888H702.78V948.917H669.122V914.888ZM704.157 914.888H737.814V948.917H704.157V914.888ZM739.192 914.888H771.221V948.917H739.192V914.888ZM775.323 914.888H807.884V948.917H775.323V914.888ZM809.246 914.888H842.903V948.917H809.246V914.888ZM844.281 914.888H878.33V948.917H844.281V914.888ZM879.692 914.888H913.349V948.917H879.692V914.888ZM914.726 914.888H946.74V948.917H914.726V914.888ZM950.841 914.888H983.403V948.917H950.841V914.888ZM984.781 914.888H1018.44V948.917H984.781V914.888ZM1019.82 914.888H1053.47V948.917H1019.82V914.888ZM1054.85 914.888H1088.51V948.917H1054.85V914.888ZM1089.89 914.888H1121.88V948.917H1089.89V914.888ZM1125.98 914.888H1158.58V948.917H1125.98V914.888ZM1159.94 914.888H1193.6V948.917H1159.94V914.888ZM1194.97 914.888H1228.65V948.917H1194.97V914.888ZM1230.01 914.888H1263.67V948.917H1230.01V914.888ZM1265.04 914.888H1297.01V948.917H1265.04V914.888ZM1301.13 914.888H1333.72V948.917H1301.13V914.888ZM1335.1 914.888H1368.76V948.917H1335.1V914.888ZM1370.13 914.888H1403.79V948.917H1370.13V914.888ZM1405.17 914.888H1438.82V948.917H1405.17V914.888ZM1440.19 914.888H1472.15V948.917H1440.19V914.888ZM1476.26 914.888H1508.86V948.917H1476.26V914.888ZM1510.24 914.888H1543.9V948.917H1510.24V914.888Z" fill="#6391C7"/>
<path d="M373.236 20.7121H368.711V42.2248H373.236V20.7121Z" fill="#A3CDFF"/>
<path d="M364.594 20.7121H360.07V42.2248H364.594V20.7121Z" fill="#A3CDFF"/>
<path d="M355.953 20.7121H351.429V61.4062H355.953V20.7121Z" fill="#A3CDFF"/>
<path d="M346.842 20.7121H342.318V42.2248H346.842V20.7121Z" fill="#A3CDFF"/>
<path d="M338.185 20.7121H333.661V42.2248H338.185V20.7121Z" fill="#A3CDFF"/>
<path d="M329.544 20.7121H325.02V42.2248H329.544V20.7121Z" fill="#A3CDFF"/>
<path d="M320.903 20.7121H316.378V61.4062H320.903V20.7121Z" fill="#A3CDFF"/>
<path d="M311.776 20.7121H307.252V42.2248H311.776V20.7121Z" fill="#A3CDFF"/>
<path d="M303.135 20.7121H298.61V42.2248H303.135V20.7121Z" fill="#A3CDFF"/>
<path d="M294.493 20.7121H289.969V42.2248H294.493V20.7121Z" fill="#A3CDFF"/>
<path d="M285.852 20.7121H281.328V61.4062H285.852V20.7121Z" fill="#A3CDFF"/>
<path d="M276.71 20.7121H272.201V42.2248H276.71V20.7121Z" fill="#A3CDFF"/>
<path d="M268.084 20.7121H263.56V42.2248H268.084V20.7121Z" fill="#A3CDFF"/>
<path d="M259.427 20.7121H254.903V42.2248H259.427V20.7121Z" fill="#A3CDFF"/>
<path d="M250.786 20.7121H246.262V61.4062H250.786V20.7121Z" fill="#A3CDFF"/>
<path d="M241.675 20.7121H237.151V42.2248H241.675V20.7121Z" fill="#A3CDFF"/>
<path d="M233.033 20.7121H228.509V42.2248H233.033V20.7121Z" fill="#A3CDFF"/>
<path d="M224.392 20.7121H219.868V42.2248H224.392V20.7121Z" fill="#A3CDFF"/>
<path d="M215.735 20.7121H211.211V61.4062H215.735V20.7121Z" fill="#A3CDFF"/>
<path d="M206.624 20.7121H202.1V42.2248H206.624V20.7121Z" fill="#A3CDFF"/>
<path d="M197.967 20.7121H193.443V42.2248H197.967V20.7121Z" fill="#A3CDFF"/>
<path d="M189.326 20.7121H184.802V42.2248H189.326V20.7121Z" fill="#A3CDFF"/>
<path d="M180.685 20.7121H176.161V61.4062H180.685V20.7121Z" fill="#A3CDFF"/>
<path d="M171.574 20.7121H167.05V42.2248H171.574V20.7121Z" fill="#A3CDFF"/>
<path d="M162.917 20.7121H158.393V42.2248H162.917V20.7121Z" fill="#A3CDFF"/>
<path d="M154.276 20.7121H149.751V42.2248H154.276V20.7121Z" fill="#A3CDFF"/>
<path d="M145.634 20.7121H141.11V61.4062H145.634V20.7121Z" fill="#A3CDFF"/>
<path d="M136.508 20.7121H131.983V42.2248H136.508V20.7121Z" fill="#A3CDFF"/>
<path d="M127.866 20.7121H123.342V42.2248H127.866V20.7121Z" fill="#A3CDFF"/>
<path d="M119.225 20.7121H114.701V42.2248H119.225V20.7121Z" fill="#A3CDFF"/>
<path d="M110.584 20.7121H106.06V61.4062H110.584V20.7121Z" fill="#A3CDFF"/>
<path d="M101.019 20.7121H96.4946V42.2248H101.019V20.7121Z" fill="#A3CDFF"/>
<path d="M92.3774 20.7121H87.8533V42.2248H92.3774V20.7121Z" fill="#A3CDFF"/>
<path d="M83.7205 20.7121H79.1963V42.2248H83.7205V20.7121Z" fill="#A3CDFF"/>
<path d="M75.0791 20.7121H70.5549V61.4062H75.0791V20.7121Z" fill="#A3CDFF"/>
<path d="M58.8767 73.6098H18.1592V78.1314H58.8767V73.6098Z" fill="#A3CDFF"/>
<path d="M39.6842 82.2462H18.1592V86.7677H39.6842V82.2462Z" fill="#A3CDFF"/>
<path d="M39.6842 90.8981H18.1592V95.4197H39.6842V90.8981Z" fill="#A3CDFF"/>
<path d="M39.6842 99.5345H18.1592V104.056H39.6842V99.5345Z" fill="#A3CDFF"/>
<path d="M58.8767 108.171H18.1592V112.692H58.8767V108.171Z" fill="#A3CDFF"/>
<path d="M39.6842 116.823H18.1592V121.344H39.6842V116.823Z" fill="#A3CDFF"/>
<path d="M39.6842 125.459H18.1592V129.981H39.6842V125.459Z" fill="#A3CDFF"/>
<path d="M39.6842 134.096H18.1592V138.617H39.6842V134.096Z" fill="#A3CDFF"/>
<path d="M58.8767 142.732H18.1592V147.254H58.8767V142.732Z" fill="#A3CDFF"/>
<path d="M39.6842 151.759H18.1592V156.281H39.6842V151.759Z" fill="#A3CDFF"/>
<path d="M39.6842 160.411H18.1592V164.933H39.6842V160.411Z" fill="#A3CDFF"/>
<path d="M39.6842 169.048H18.1592V173.569H39.6842V169.048Z" fill="#A3CDFF"/>
<path d="M58.8767 177.684H18.1592V182.206H58.8767V177.684Z" fill="#A3CDFF"/>
<path d="M39.6842 186.336H18.1592V190.858H39.6842V186.336Z" fill="#A3CDFF"/>
<path d="M39.6842 194.972H18.1592V199.494H39.6842V194.972Z" fill="#A3CDFF"/>
<path d="M39.6842 203.609H18.1592V208.13H39.6842V203.609Z" fill="#A3CDFF"/>
<path d="M58.8767 212.245H18.1592V216.767H58.8767V212.245Z" fill="#A3CDFF"/>
<path d="M39.6842 221.367H18.1592V225.888H39.6842V221.367Z" fill="#A3CDFF"/>
<path d="M39.6842 230.003H18.1592V234.524H39.6842V230.003Z" fill="#A3CDFF"/>
<path d="M39.6842 238.639H18.1592V243.161H39.6842V238.639Z" fill="#A3CDFF"/>
<path d="M58.8767 247.276H18.1592V251.797H58.8767V247.276Z" fill="#A3CDFF"/>
<path d="M39.6842 256.397H18.1592V260.919H39.6842V256.397Z" fill="#A3CDFF"/>
<path d="M39.6842 265.033H18.1592V269.555H39.6842V265.033Z" fill="#A3CDFF"/>
<path d="M39.6842 273.67H18.1592V278.191H39.6842V273.67Z" fill="#A3CDFF"/>
<path d="M58.8767 282.322H18.1592V286.843H58.8767V282.322Z" fill="#A3CDFF"/>
<path d="M39.6842 291.427H18.1592V295.949H39.6842V291.427Z" fill="#A3CDFF"/>
<path d="M39.6842 300.064H18.1592V304.585H39.6842V300.064Z" fill="#A3CDFF"/>
<path d="M39.6842 308.716H18.1592V313.237H39.6842V308.716Z" fill="#A3CDFF"/>
<path d="M58.8767 317.352H18.1592V321.874H58.8767V317.352Z" fill="#A3CDFF"/>
<path d="M39.6842 326.458H18.1592V330.979H39.6842V326.458Z" fill="#A3CDFF"/>
<path d="M39.6842 335.11H18.1592V339.631H39.6842V335.11Z" fill="#A3CDFF"/>
<path d="M39.6842 343.746H18.1592V348.268H39.6842V343.746Z" fill="#A3CDFF"/>
<path d="M58.8767 352.383H18.1592V356.904H58.8767V352.383Z" fill="#A3CDFF"/>
<path d="M39.6842 361.504H18.1592V366.025H39.6842V361.504Z" fill="#A3CDFF"/>
<path d="M39.6842 370.14H18.1592V374.662H39.6842V370.14Z" fill="#A3CDFF"/>
<path d="M39.6842 378.777H18.1592V383.298H39.6842V378.777Z" fill="#A3CDFF"/>
<path d="M58.8767 387.413H18.1592V391.935H58.8767V387.413Z" fill="#A3CDFF"/>
<path d="M39.6842 396.534H18.1592V401.056H39.6842V396.534Z" fill="#A3CDFF"/>
<path d="M39.6842 405.171H18.1592V409.692H39.6842V405.171Z" fill="#A3CDFF"/>
<path d="M39.6842 413.807H18.1592V418.329H39.6842V413.807Z" fill="#A3CDFF"/>
<path d="M58.8767 422.459H18.1592V426.981H58.8767V422.459Z" fill="#A3CDFF"/>
<path d="M39.6842 431.565H18.1592V436.086H39.6842V431.565Z" fill="#A3CDFF"/>
<path d="M39.6842 440.201H18.1592V444.723H39.6842V440.201Z" fill="#A3CDFF"/>
<path d="M39.6842 448.838H18.1592V453.359H39.6842V448.838Z" fill="#A3CDFF"/>
<path d="M58.8767 457.49H18.1592V462.011H58.8767V457.49Z" fill="#A3CDFF"/>
<path d="M39.6842 466.595H18.1592V471.117H39.6842V466.595Z" fill="#A3CDFF"/>
<path d="M39.6842 475.232H18.1592V479.753H39.6842V475.232Z" fill="#A3CDFF"/>
<path d="M39.6842 483.884H18.1592V488.405H39.6842V483.884Z" fill="#A3CDFF"/>
<path d="M58.8767 492.52H18.1592V497.041H58.8767V492.52Z" fill="#A3CDFF"/>
<path d="M39.6842 501.626H18.1592V506.147H39.6842V501.626Z" fill="#A3CDFF"/>
<path d="M39.6842 510.278H18.1592V514.799H39.6842V510.278Z" fill="#A3CDFF"/>
<path d="M39.6842 518.914H18.1592V523.436H39.6842V518.914Z" fill="#A3CDFF"/>
<path d="M58.8767 527.55H18.1592V532.072H58.8767V527.55Z" fill="#A3CDFF"/>
<path d="M39.6842 536.656H18.1592V541.178H39.6842V536.656Z" fill="#A3CDFF"/>
<path d="M39.6842 545.308H18.1592V549.83H39.6842V545.308Z" fill="#A3CDFF"/>
<path d="M39.6842 553.944H18.1592V558.466H39.6842V553.944Z" fill="#A3CDFF"/>
<path d="M58.8767 562.596H18.1592V567.118H58.8767V562.596Z" fill="#A3CDFF"/>
<path d="M39.6842 571.702H18.1592V576.224H39.6842V571.702Z" fill="#A3CDFF"/>
<path d="M39.6842 580.339H18.1592V584.86H39.6842V580.339Z" fill="#A3CDFF"/>
<path d="M39.6842 588.975H18.1592V593.497H39.6842V588.975Z" fill="#A3CDFF"/>
<path d="M58.8767 597.627H18.1592V602.148H58.8767V597.627Z" fill="#A3CDFF"/>
<path d="M39.6842 606.733H18.1592V611.254H39.6842V606.733Z" fill="#A3CDFF"/>
<path d="M39.6842 615.369H18.1592V619.891H39.6842V615.369Z" fill="#A3CDFF"/>
<path d="M39.6842 624.021H18.1592V628.543H39.6842V624.021Z" fill="#A3CDFF"/>
<path d="M58.8767 632.657H18.1592V637.179H58.8767V632.657Z" fill="#A3CDFF"/>
<path d="M39.6842 641.763H18.1592V646.285H39.6842V641.763Z" fill="#A3CDFF"/>
<path d="M39.6842 650.399H18.1592V654.921H39.6842V650.399Z" fill="#A3CDFF"/>
<path d="M39.6842 659.051H18.1592V663.573H39.6842V659.051Z" fill="#A3CDFF"/>
<path d="M49.6874 20.7121H18.1592V52.2223H49.6874V20.7121Z" fill="#A3CDFF"/>
</g>
</svg>
